<svg id="Layer_1" data-name="Layer 1" xmlns="http://www.w3.org/2000/svg" xmlns:xlink="http://www.w3.org/1999/xlink" viewBox="0 0 283.54 87.18"><defs><style>.cls-1{fill:none;}.cls-2{clip-path:url(#clip-path);}.cls-3{fill:url(#linear-gradient);}.cls-4{clip-path:url(#clip-path-2);}.cls-5{fill:url(#linear-gradient-2);}.cls-6{clip-path:url(#clip-path-3);}.cls-7{fill:url(#linear-gradient-3);}.cls-8{clip-path:url(#clip-path-4);}.cls-9{fill:url(#linear-gradient-4);}.cls-10{fill:#888886;}</style><clipPath id="clip-path"><path class="cls-1" d="M126.18,6.57v0a6.15,6.15,0,1,0,12.3,0v0a6.15,6.15,0,1,0-12.3,0"/></clipPath><linearGradient id="linear-gradient" x1="3263.8" y1="341.93" x2="3264.63" y2="341.93" gradientTransform="matrix(145.89, 0, 0, -145.89, -476139.85, 49890.45)" gradientUnits="userSpaceOnUse"><stop offset="0" stop-color="#23488b"/><stop offset="0.3" stop-color="#289548"/><stop offset="0.34" stop-color="#379944"/><stop offset="0.42" stop-color="#60a539"/><stop offset="0.54" stop-color="#a1b728"/><stop offset="0.66" stop-color="#f3ce12"/><stop offset="0.71" stop-color="#efcc14"/><stop offset="0.76" stop-color="#e4c41b"/><stop offset="0.81" stop-color="#d1b826"/><stop offset="0.85" stop-color="#b6a735"/><stop offset="0.9" stop-color="#949149"/><stop offset="0.94" stop-color="#6a7662"/><stop offset="0.98" stop-color="#39567e"/><stop offset="1" stop-color="#23488b"/></linearGradient><clipPath id="clip-path-2"><path class="cls-1" d="M94.86,15.38a6.11,6.11,0,0,0-6.15,6.16V66a6.07,6.07,0,1,0,12.14,0V59.68h14l-8.28-10.85h-5.76V36.9l17.32,22.68.8,1,18.44,24.1a6,6,0,0,0,3.81,2.3h2a6.07,6.07,0,0,0,3.8-9.68L137.58,65,126.26,50.12v0L114.41,34.57l-1.33-1.73v0L102.53,19c-1.68-2.16-3.43-3.6-6.39-3.6Z"/></clipPath><linearGradient id="linear-gradient-2" x1="3263.8" y1="342.25" x2="3264.63" y2="342.25" gradientTransform="matrix(145.94, 0, 0, -145.94, -476317.23, 49999.67)" xlink:href="#linear-gradient"/><clipPath id="clip-path-3"><path class="cls-1" d="M35.87,18.76V61H8.35V49.1h9.44a5.53,5.53,0,0,0,5.58-5.51A5.6,5.6,0,0,0,17.79,38H8.35V26.51h18.5A5.53,5.53,0,0,0,32.44,21a5.6,5.6,0,0,0-5.59-5.58H2.19A6.18,6.18,0,0,0-4,21.65V65.86A6.18,6.18,0,0,0,2.19,72.1H42.34a5.54,5.54,0,0,0,5.53-4.76A6.26,6.26,0,0,0,48,66V35.79L72.62,68.35C74.3,70.51,76.05,72,79,72h.4a6.11,6.11,0,0,0,6.15-6.16V21.45a6.07,6.07,0,0,0-12.14,0V50.14L35.87.42Z"/></clipPath><linearGradient id="linear-gradient-3" x1="3263.87" y1="342.23" x2="3264.69" y2="342.23" gradientTransform="matrix(146.11, 0, 0, -146.11, -476864.1, 50037)" xlink:href="#linear-gradient"/><clipPath id="clip-path-4"><path class="cls-1" d="M126.26,21.45V45l5.3,7,6.84,9V21.45a6.07,6.07,0,1,0-12.14,0"/></clipPath><linearGradient id="linear-gradient-4" x1="3263.83" y1="342.11" x2="3264.66" y2="342.11" gradientTransform="matrix(146.1, 0, 0, -146.1, -476826.15, 50019.6)" xlink:href="#linear-gradient"/></defs><title>ENAI</title><g class="cls-2"><rect class="cls-3" x="126.18" y="0.42" width="12.3" height="12.35"/></g><g class="cls-4"><rect class="cls-5" x="88.02" y="15.11" width="60.38" height="71.64"/></g><g class="cls-6"><rect class="cls-7" x="0.64" y="-1.37" width="89.6" height="71.69"/></g><g class="cls-8"><rect class="cls-9" x="126.26" y="15.38" width="12.14" height="45.58"/></g><path class="cls-10" d="M183.51,66.06H157.45l14-12.39c10.37-9,15-14.51,15-23.22v-.16c0-10-7.92-17.26-18.84-17.26-8.82,0-14.72,3.2-20.33,11a3.72,3.72,0,0,0-.83,2.32,3.8,3.8,0,0,0,3.79,3.8,3.76,3.76,0,0,0,3-1.48c4.39-5.8,8.4-8.16,13.82-8.16,7.17,0,10.92,5.2,10.92,10.33,0,5.4-2.89,9.7-11.86,17.68L146.25,66.08a4.56,4.56,0,0,0-1.86,3.69,3.88,3.88,0,0,0,4.13,3.88h35a3.8,3.8,0,1,0,0-7.59"/><path class="cls-10" d="M207,67.05c-8.28,0-17.07-8.16-17.07-23.3v-.16c0-6.25,1.64-12.05,4.63-16.31,3.12-4.47,7.36-6.83,12.27-6.83,8.23,0,17,8.17,17,23.3v.17a28.78,28.78,0,0,1-4.58,16.28c-2.17,3.13-6,6.85-12.23,6.85m0-54.19a23.3,23.3,0,0,0-18.59,9.25c-4.45,5.67-6.9,13.36-6.9,21.64v.17c0,17.8,10.65,30.72,25.32,30.72a23.19,23.19,0,0,0,18.55-9.24c4.42-5.67,6.86-13.36,6.86-21.65v-.16c0-17.81-10.62-30.73-25.24-30.73"/><path class="cls-10" d="M238.85,13.2h-.16a13.08,13.08,0,0,0-3.84.79l-9.56,3.32a3.78,3.78,0,0,0-2.87,3.59,3.69,3.69,0,0,0,3.63,3.63,5.64,5.64,0,0,0,1.67-.29l7.09-2.32v48a4.14,4.14,0,0,0,4,4.13,4,4,0,0,0,4.05-4.13V17.24a4,4,0,0,0-4.05-4"/><path class="cls-10" d="M273.88,29.87v-.16c0-5.73-5.24-10-12.15-10s-12.15,4.24-12.15,10.05v.16c0,6.31,5.39,10.63,12.15,10.63s12.15-4.32,12.15-10.63m1.75,27.22v-.16c0-6.47-6.15-11-13.9-11s-13.9,4.57-13.9,11v.16C247.83,62.9,253,68,261.73,68s13.9-5,13.9-10.88m-33.87.17v-.17c0-6.88,4.55-11.78,10.93-14.27-4.93-2.49-9.11-6.64-9.11-13.36v-.17c0-9,8.43-15.35,18.15-15.35s18.15,6.39,18.15,15.35v.17c0,6.72-4.17,10.87-9.11,13.36,6.3,2.57,10.94,7.3,10.94,14.19v.17c0,9.87-8.66,16.51-20,16.51s-20-6.72-20-16.43"/><path class="cls-10" d="M261.73,20.61c-6.38,0-11.2,3.91-11.2,9.1v.16c0,5.61,4.71,9.68,11.2,9.68s11.2-4.07,11.2-9.68v-.16c0-5.19-4.81-9.1-11.2-9.1m0,20.84c-7.47,0-13.1-5-13.1-11.58v-.16c0-6.27,5.63-11,13.1-11s13.1,4.73,13.1,11v.16c0,6.6-5.63,11.58-13.1,11.58m0,5.39c-7.38,0-13,4.34-13,10.09v.17c0,6.51,6.52,9.92,13,9.92,8.9,0,12.95-5.15,12.95-9.92v-.17c0-5.75-5.57-10.09-12.95-10.09m0,22.08a16.59,16.59,0,0,1-10.83-3.48,10.78,10.78,0,0,1-4-8.34v-.17c0-6.84,6.38-12,14.85-12s14.85,5.15,14.85,12v.17c0,7-6.11,11.82-14.85,11.82m0-54c-9.64,0-17.2,6.32-17.2,14.4v.17c0,5.43,2.89,9.64,8.59,12.51l1.9,1-2,.77c-6.57,2.57-10.33,7.45-10.33,13.4v.16c0,9,8,15.48,19,15.48s19-6.54,19-15.56V57c0-7.91-6.49-11.73-10.35-13.31l-1.93-.79,1.86-.94c5.7-2.87,8.59-7.08,8.59-12.51v-.17c0-8.08-7.55-14.4-17.2-14.4m0,59.75c-12.12,0-20.93-7.31-20.93-17.38V57.1c0-6.2,3.53-11.36,9.75-14.38-5.19-3.17-7.92-7.73-7.92-13.26v-.17c0-9.14,8.39-16.3,19.1-16.3s19.1,7.16,19.1,16.3v.17c0,5.54-2.73,10.1-7.94,13.27,6.32,3.13,9.77,8.14,9.77,14.28v.17c0,10.12-8.8,17.46-20.93,17.46"/></svg>