<?xml version="1.0" encoding="utf-8"?>
<!-- Generator: Adobe Illustrator 22.1.0, SVG Export Plug-In . SVG Version: 6.00 Build 0)  -->
<svg version="1.1" id="Layer_1" xmlns="http://www.w3.org/2000/svg" xmlns:xlink="http://www.w3.org/1999/xlink" x="0px" y="0px"
	 viewBox="0 0 297.6 419.5" style="enable-background:new 0 0 297.6 419.5;" xml:space="preserve">
<style type="text/css">
	.st0{fill:#CF6223;}
	.st1{clip-path:url(#SVGID_2_);}
	.st2{fill:#F9DC0A;}
	.st3{fill:#FFFFFF;}
	.st4{fill:#ECECEC;stroke:#222221;stroke-width:0.9726;stroke-miterlimit:10;}
	.st5{fill:#222221;}
	.st6{font-family:'ArialMT';}
	.st7{font-size:13.8455px;}
	.st8{font-family:'MyriadPro-Bold';}
	.st9{font-size:11.7842px;}
	.st10{fill:#7FB141;}
	.st11{clip-path:url(#SVGID_4_);}
	.st12{fill:url(#SVGID_5_);}
	.st13{clip-path:url(#SVGID_7_);}
	.st14{fill:url(#SVGID_8_);}
	.st15{clip-path:url(#SVGID_10_);}
	.st16{fill:url(#SVGID_11_);}
	.st17{clip-path:url(#SVGID_13_);}
	.st18{fill:url(#SVGID_14_);}
	.st19{clip-path:url(#SVGID_16_);}
	.st20{fill:url(#SVGID_17_);}
	.st21{clip-path:url(#SVGID_19_);}
	.st22{fill:url(#SVGID_20_);}
	.st23{clip-path:url(#SVGID_22_);}
	.st24{fill:url(#SVGID_23_);}
	.st25{clip-path:url(#SVGID_25_);}
	.st26{fill:url(#SVGID_26_);}
</style>
<title>Asset 2</title>
<g id="Layer_2_1_">
	<g id="Layer_1-2">
		<polygon class="st0" points="0,0 297.5,0 297.5,144.7 0,211.4 		"/>
		<g>
			<defs>
				<polygon id="SVGID_1_" points="0,0 297.5,0 297.5,144.7 0,211.4 				"/>
			</defs>
			<clipPath id="SVGID_2_">
				<use xlink:href="#SVGID_1_"  style="overflow:visible;"/>
			</clipPath>
			<g class="st1">
				<polygon class="st2" points="114.7,57.8 -5.3,57.8 -0.7,41.2 119.2,41.2 				"/>
				<polygon class="st2" points="79.9,-0.4 43.8,124.4 59.9,124.4 96,-0.4 				"/>
				<polygon class="st2" points="101.3,88.2 -4,88.2 0,71.6 105.3,71.6 				"/>
				<polygon class="st2" points="52.2,-0.4 16.1,124.4 32.1,124.4 68.3,-0.4 				"/>
				<path class="st3" d="M72.3,107.9l1.4-1.5c0.6,0.7,1.5,1.1,2.4,1.1c0.5,0,0.9-0.2,0.9-0.6c0-0.4-0.2-0.5-1.3-0.9
					c-1.3-0.5-2.1-1.1-2.1-2.3c0-1.6,1.4-2.8,3.4-2.8c1.2,0,2.4,0.4,3.3,1.2l-1.4,1.6c-0.6-0.6-1.3-0.9-2.1-0.9
					c-0.5,0-0.9,0.3-0.9,0.6s0.2,0.4,1.3,0.9c1.1,0.4,2.1,1.1,2.1,2.3c0,1.7-1.4,2.8-3.4,2.8C74.7,109.5,73.3,108.9,72.3,107.9z"/>
				<path class="st3" d="M83.4,101.1h6.4l-0.5,2h-4.2l-0.3,1.2h3.8l-0.5,1.8h-3.8l-0.3,1.3h4.2l-0.5,2h-6.4L83.4,101.1z"/>
				<path class="st3" d="M92.5,101.1h2.2l1.1,3.2l2.7-3.2h2.5l-2.1,8.2h-2.2l1.2-4.7l-2.9,3.2h0l-1.2-3.2l-1.2,4.7h-2.1L92.5,101.1z
					"/>
				<path class="st3" d="M103.8,101.1h2.6c1-0.1,2,0.2,2.7,0.9c0.4,0.4,0.6,1.1,0.6,1.7c0,2-1.6,3.3-4,3.3h-1.3l-0.6,2.4h-2.2
					L103.8,101.1z M105.8,105.2c1.1,0,1.7-0.5,1.7-1.3c0-0.2-0.1-0.4-0.2-0.6c-0.3-0.2-0.6-0.4-1-0.3h-0.8l-0.6,2.2L105.8,105.2z"/>
				<path class="st3" d="M112.8,101.1h3c1-0.1,2,0.2,2.7,0.9c0.4,0.5,0.6,1.1,0.6,1.7c0,1.4-1,2.7-2.4,2.9l1.2,2.8h-2.4l-1.1-2.5h-1
					l-0.6,2.5h-2.2L112.8,101.1z M115.3,105c1,0,1.6-0.4,1.6-1.1c0-0.2-0.1-0.4-0.2-0.6c-0.3-0.2-0.6-0.3-1-0.3h-1.2l-0.5,2
					L115.3,105z"/>
				<path class="st3" d="M122.5,101.1h6.4l-0.5,2h-4.2l-0.3,1.2h3.8l-0.5,1.8h-3.8l-0.3,1.3h4.2l-0.5,2h-6.4L122.5,101.1z"/>
				<path class="st3" d="M69.5,119.9c0-0.7,0.1-1.4,0.3-2.1l1.8-6.8h3.6l-1.8,7c-0.1,0.4-0.2,0.8-0.2,1.3c-0.1,1,0.6,1.9,1.6,2
					c0.1,0,0.3,0,0.4,0c0.6,0,1.3-0.2,1.7-0.7c0.6-0.6,0.9-1.4,1.1-2.2l1.9-7.3h3.6l-2,7.9c-0.3,1.5-1,2.8-2,4
					c-1.3,1.2-3,1.8-4.8,1.7C71.4,124.6,69.5,122.9,69.5,119.9z"/>
				<path class="st3" d="M90.2,114.3h-3.8l0.9-3.2h11.3l-0.9,3.2h-3.8l-2.6,10.1h-3.6L90.2,114.3z"/>
				<path class="st3" d="M100.1,119.9c0-0.7,0.1-1.4,0.3-2.1l1.8-6.8h3.6l-1.8,7c-0.1,0.4-0.2,0.8-0.2,1.3c-0.1,1,0.6,1.9,1.6,2
					c0.1,0,0.3,0,0.4,0c0.6,0,1.3-0.2,1.7-0.7c0.6-0.6,0.9-1.4,1.1-2.2l1.9-7.3h3.6l-2,7.9c-0.3,1.5-1,2.8-2,4
					c-1.3,1.2-3,1.8-4.8,1.7C102,124.6,100.1,122.9,100.1,119.9z"/>
				<path class="st3" d="M118.6,111h4.8c2.2,0,3.6,0.5,4.4,1.4c0.7,0.7,1,1.7,1,2.7c0,2.2-1.2,4-3.8,4.7l2,4.5h-3.9l-1.7-4h-1.6
					l-1.1,4h-3.6L118.6,111z M122.6,117.4c1.6,0,2.6-0.7,2.6-1.8c0-0.3-0.1-0.7-0.3-0.9c-0.4-0.4-1-0.5-1.6-0.5h-1.9l-0.8,3.2H122.6
					z"/>
				<path class="st3" d="M132,118.6c0-4.3,3.5-7.8,7.7-7.8c3.7,0,6.1,2.6,6.1,5.9c0,4.3-3.5,7.8-7.7,7.8
					C134.5,124.6,132,122,132,118.6z M142.2,117.1c0.1-1.5-1-2.8-2.4-3c-0.1,0-0.3,0-0.4,0c-2.2,0-3.7,2.3-3.7,4.2
					c-0.1,1.5,1,2.8,2.4,3c0.1,0,0.3,0,0.4,0C140.8,121.3,142.2,119,142.2,117.1z"/>
				<polygon class="st3" points="115.2,57.8 119.2,41.2 84,41.2 67.9,41.2 63.1,57.8 63.1,57.8 59.1,71.6 59.1,71.6 54.3,88.2 
					54.3,88.2 43.8,124.4 59.9,124.4 70.4,88.2 101.3,88.2 105.3,71.6 75.2,71.6 79.2,57.8 				"/>
			</g>
		</g>
		<rect x="184.8" y="73.5" class="st4" width="81.3" height="102.2"/>
		<path class="st5" d="M86.4,276.1H57.2c-2.5,0-4.6,2.1-4.6,4.7V311c0,2.6,2.1,4.7,4.6,4.7c0,0,0,0,0,0h29.2c2.5,0,4.6-2.1,4.6-4.7
			v-30.2C91,278.2,89,276.1,86.4,276.1z M70.2,290.1c0,1.2-1,2.1-2.1,2.2v17.7c0.1,0.9-0.6,1.8-1.5,1.8c-0.9,0.1-1.7-0.6-1.8-1.6
			c0-0.1,0-0.2,0-0.3v-17.7c-1.2,0-2.2-1-2.2-2.2c0,0,0-0.1,0-0.1v-9.7c0-0.3,0.2-0.6,0.5-0.7c0.3,0,0.6,0.2,0.7,0.5
			c0,0.1,0,0.1,0,0.2v7.2h2v-7.2c0-0.3,0.2-0.6,0.6-0.6s0.6,0.3,0.6,0.6l0,0v7.2H69v-7.2c0-0.3,0.3-0.6,0.6-0.6
			c0.3,0,0.6,0.3,0.6,0.6c0,0,0,0,0,0L70.2,290.1z M80.5,309.9c0.1,0.9-0.6,1.8-1.5,1.8c-0.9,0.1-1.7-0.6-1.8-1.6c0-0.1,0-0.2,0-0.3
			V299h-1.8v-16.5c-0.1-1.5,0.9-2.8,2.3-2.9c1.4-0.2,2.7,0.9,2.8,2.3c0,0.2,0,0.4,0,0.6L80.5,309.9z"/>
		<path class="st5" d="M109.5,285.9h10.1c1,0,1-2,0-2h-10.1C108.5,284,108.5,285.9,109.5,285.9z"/>
		<path class="st5" d="M106.2,295.8h16.7c0.5,0,0.9-0.4,0.9-0.9c0-0.1,0-0.2,0-0.2l-0.9-6.8c-0.1-0.4-0.5-0.8-0.9-0.8h-14.9
			c-0.4,0-0.8,0.3-0.9,0.8l-0.9,6.8c0,0.1,0,0.2,0,0.2C105.4,295.4,105.7,295.8,106.2,295.8z"/>
		<path class="st5" d="M106.9,299.7c-0.9,0-1.7,0.8-1.7,1.8s0.8,1.8,1.7,1.8c0.9,0,1.7-0.8,1.7-1.8c0,0,0,0,0,0
			C108.5,300.5,107.8,299.7,106.9,299.7z"/>
		<path class="st5" d="M122.2,299.7c-0.9,0-1.7,0.8-1.7,1.8c0,1,0.8,1.8,1.7,1.8c0.9,0,1.7-0.8,1.7-1.8c0,0,0,0,0,0
			C123.9,300.5,123.2,299.7,122.2,299.7z"/>
		<path class="st5" d="M129.1,276.1H99.9c-2.5,0-4.6,2.1-4.6,4.7V311c0,2.6,2.1,4.7,4.6,4.7h0h29.2c2.5,0,4.6-2.1,4.6-4.7
			c0,0,0,0,0,0v-30.2C133.7,278.2,131.7,276.1,129.1,276.1C129.2,276.1,129.2,276.1,129.1,276.1z M125.7,306.8h-1.8v1.9
			c0.1,0.9-0.6,1.7-1.5,1.8c-0.9,0.1-1.7-0.6-1.7-1.5c0-0.1,0-0.2,0-0.3v-1.9h-12.2v1.9c0,0.9-0.7,1.7-1.6,1.7
			c-0.9,0-1.6-0.7-1.6-1.7v-1.9h-1.9v-11.9l1.1-8.6c0.3-1.6,1.3-2.2,2.7-2.8c4.8-1.8,10-1.8,14.7,0c1.5,0.6,2.4,1.2,2.7,2.8l1.1,8.6
			L125.7,306.8z"/>
		<path class="st5" d="M214.6,276.1h-29.2c-2.5,0-4.6,2.1-4.6,4.7V311c0,2.6,2,4.7,4.6,4.7c0,0,0,0,0,0h29.2c2.5,0,4.6-2.1,4.6-4.7
			c0,0,0,0,0,0v-30.2C219.2,278.2,217.1,276.1,214.6,276.1C214.6,276.1,214.6,276.1,214.6,276.1z M209.5,297.9v8.9h-2.9v-8.6h-1.7
			v8.6h-3l-1.6-11.3l0.9-1.1l-1-1.4h4.6C207.3,293,209.5,295.2,209.5,297.9C209.5,297.9,209.5,297.9,209.5,297.9L209.5,297.9z
			 M200,282.4c2.5,0,4.5,2.1,4.5,4.6c0,2.6-2,4.6-4.5,4.6c-2.5,0-4.5-2.1-4.5-4.6C195.5,284.5,197.5,282.4,200,282.4
			C200,282.4,200,282.4,200,282.4z M190.5,297.9c0-2.7,2-4.8,4.6-4.9c0,0,0,0,0,0h4.6l-1,1.4l0.9,1.1l-1.6,11.3h-2.9v-8.6h-1.7v8.6
			h-2.9L190.5,297.9z M213.1,310.5h-26.3c-0.3,0-0.6-0.2-0.7-0.5c0-0.3,0.2-0.7,0.5-0.7c0.1,0,0.1,0,0.2,0h26.3
			c0.3,0,0.6,0.2,0.7,0.5c0,0.3-0.2,0.7-0.5,0.7C213.2,310.5,213.2,310.5,213.1,310.5z"/>
		<path class="st5" d="M157.9,299.4c0.9,0.6,2.2,0.4,2.8-0.6c0.6-1,0.3-2.2-0.6-2.9c-0.9-0.6-2.2-0.4-2.8,0.6c0,0,0,0,0,0
			C156.7,297.5,157,298.8,157.9,299.4z"/>
		<path class="st5" d="M171.9,276.1h-29.2c-2.5,0-4.6,2.1-4.6,4.7V311c0,2.6,2.1,4.7,4.6,4.7h29.2c2.5,0,4.6-2.1,4.6-4.7
			c0,0,0,0,0,0v-30.2C176.5,278.2,174.4,276.1,171.9,276.1L171.9,276.1z M157.3,282.4c2.5,0,4.5,2.1,4.5,4.6c0,2.6-2,4.7-4.5,4.7
			c-2.5,0-4.5-2.1-4.5-4.6c0,0,0,0,0,0C152.8,284.5,154.8,282.4,157.3,282.4C157.3,282.4,157.3,282.4,157.3,282.4z M147.8,297.9
			c0-2.7,2.1-4.8,4.6-4.9c0,0,0,0,0,0h9.6c2.6,0,4.7,2.2,4.7,4.9c0,0,0,0,0,0.1v8.9h-2.9v-8.6h-1.6v8.6h-9.8v-8.6h-1.7v8.6h-2.9
			V297.9z M170.4,310.5h-26.3c-0.3,0-0.6-0.3-0.6-0.6c0,0,0,0,0,0c0-0.3,0.3-0.6,0.6-0.6h0h26.3c0.3,0,0.6,0.3,0.6,0.6c0,0,0,0,0,0
			C171,310.2,170.8,310.5,170.4,310.5C170.4,310.5,170.4,310.5,170.4,310.5L170.4,310.5z"/>
		<path class="st5" d="M155,304.1c0.4,0.2,0.9,0.2,1.2-0.2l0,0l0.1-0.1l0,0l2.7-3.6c-0.9,0.3-1.8-0.2-2.1-1.2c0-0.1,0-0.2-0.1-0.3
			l-2.2,4.2l0,0C154.5,303.3,154.6,303.8,155,304.1z"/>
		<text transform="matrix(0.9672 0 0 1 100.1946 392.2419)" class="st3 st6 st7">COORDENAÇÃO</text>
		<path class="st5" d="M257.3,276.1h-29.2c-2.5,0-4.6,2.1-4.6,4.7V311c0,2.6,2.1,4.7,4.6,4.7c0,0,0,0,0,0h29.2
			c2.5,0,4.6-2.1,4.6-4.7c0,0,0,0,0,0v-30.2C261.9,278.2,259.8,276.1,257.3,276.1z M235.4,290.1c0,1.2-1,2.1-2.1,2.2v17.7
			c0.1,0.9-0.6,1.8-1.5,1.9c-0.9,0.1-1.7-0.6-1.8-1.5c0-0.1,0-0.2,0-0.4v-17.7c-1.2,0-2.2-1-2.2-2.2c0,0,0-0.1,0-0.1v-9.7
			c0-0.3,0.3-0.6,0.6-0.6c0.3,0,0.6,0.3,0.6,0.6v7.2h2v-7.2c0-0.3,0.2-0.6,0.6-0.6s0.6,0.3,0.6,0.6l0,0v7.2h2.1v-7.2
			c0-0.3,0.2-0.6,0.5-0.7c0.3,0,0.6,0.2,0.7,0.5c0,0.1,0,0.1,0,0.2L235.4,290.1z M245.8,309.9c0.1,0.9-0.6,1.8-1.5,1.8
			c-0.9,0.1-1.7-0.6-1.8-1.6c0-0.1,0-0.2,0-0.3V299h-1.8v-16.5c-0.1-1.5,0.9-2.8,2.3-2.9c1.4-0.2,2.7,0.9,2.8,2.3c0,0.2,0,0.4,0,0.6
			V309.9z"/>
		<text transform="matrix(6.123234e-17 -1.0339 1 6.330968e-17 258.8508 302.1081)" class="st3 st8 st9">VIP</text>
		<path class="st10" d="M206.3,37.1h-0.1h-0.1c-0.5,0.2-1,0.4-1.5,0.7c-2.7,1.3-5.7,2-8.7,2l0,0c-1,0-1.9-0.1-2.9-0.2
			c-6.2-1.7-5.7-2.5-7.9-3.4c-2.3-0.9-4.7-1.3-7.2-1.2l0,0c-2.9,0-5.8,1.2-7.9,3.3c0,0,0,0.1-0.1,0.1L163,52.8
			c-0.1,0.1-0.1,0.3,0.1,0.4c0.1,0.1,0.3,0.2,0.4,0.1c2.7-1,5.5-1.6,8.3-1.6c3.6,0,7.2,0.8,10.5,2.4c0.2,0.1,1.7,0.8,2.7,1.4h0.1
			h0.1h0.1c0.1,0.1,0.3,0.2,0.4,0.3l0,0l0,0l0,0c2.7,1.4,5.9,1.2,8.5-0.3h0c0.8-0.4,1.6-0.9,2.4-1.5c0.4-0.3,0.9-0.7,1.3-1.1
			c0.4-0.4,0.8-0.8,1.2-1.2c0.8-0.8,1.5-1.7,2.1-2.6c1.2-1.8,2.3-3.7,3.2-5.7c0.5-1,0.9-2,1.2-3c0.4-1,0.7-2,1-3c0-0.1,0-0.2,0-0.3
			C206.5,37.1,206.4,37.1,206.3,37.1z"/>
		<path class="st3" d="M218.7,38.6c0-1.6-1.2-2.8-2.7-2.8c-1.5,0-2.7,1.2-2.8,2.8c0,1.6,1.2,2.8,2.7,2.8c0,0,0,0,0,0
			C217.4,41.4,218.7,40.1,218.7,38.6C218.7,38.6,218.7,38.6,218.7,38.6 M219.3,38.6c0.1,1.9-1.4,3.5-3.3,3.6
			c-1.9,0.1-3.4-1.4-3.5-3.4s1.4-3.5,3.3-3.6c0,0,0.1,0,0.1,0C217.8,35.2,219.3,36.7,219.3,38.6"/>
		<polygon class="st3" points="220.3,35.3 221,35.3 221,41.3 223.6,41.3 223.6,41.9 220.3,41.9 		"/>
		<rect x="224.3" y="35.3" class="st3" width="0.6" height="6.6"/>
		<polygon class="st3" points="226.2,35.3 227.2,35.3 229.5,40.9 231.8,35.3 232.8,35.3 232.8,41.9 232.2,41.9 232.2,36 229.8,41.9 
			229.3,41.9 226.9,36 226.9,41.9 226.2,41.9 		"/>
		<path class="st3" d="M235.8,38.6c0.4,0,0.9,0,1.3-0.3c0.6-0.4,0.7-1.2,0.3-1.8c-0.1-0.2-0.3-0.4-0.6-0.5c-0.4-0.1-0.9-0.2-1.3-0.1
			h-0.8v2.7H235.8z M234.1,35.3h1.6c0.6,0,1.2,0.1,1.7,0.4c0.5,0.4,0.8,1,0.8,1.6c0,0.6-0.3,1.2-0.7,1.5c-0.5,0.3-1.1,0.5-1.6,0.4
			h-1.1v2.7h-0.6L234.1,35.3z"/>
		<path class="st3" d="M239.2,35.3h0.6v6.6h-0.6L239.2,35.3z M240.2,33.2l0.3,0.5l-1.7,1l-0.3-0.5L240.2,33.2z"/>
		<path class="st3" d="M244.9,39.1l-1.2-3l-1.2,3H244.9z M243.3,35.3h0.7l2.7,6.6h-0.7l-1-2.2h-2.9l-1,2.2h-0.7L243.3,35.3z"/>
		<path class="st3" d="M249,41.3c0.8,0.1,1.6-0.1,2.3-0.6c0.6-0.5,1-1.3,1-2.1c0-0.8-0.3-1.6-1-2.1c-0.7-0.5-1.5-0.7-2.3-0.6h-0.8
			v5.4L249,41.3z M247.5,35.4h1.7c0.9-0.1,1.8,0.2,2.5,0.8c0.7,0.6,1.1,1.5,1.2,2.5c0,0.9-0.4,1.8-1,2.4c-0.7,0.6-1.6,0.9-2.6,0.9
			h-1.8L247.5,35.4z"/>
		<path class="st3" d="M257.6,39.1l-1.2-3l-1.2,3H257.6z M256.1,35.3h0.7l2.7,6.6h-0.7l-1-2.2h-3l-1,2.2h-0.7L256.1,35.3z"/>
		<path class="st3" d="M264.1,41.3c0.8,0.1,1.6-0.1,2.3-0.6c0.6-0.5,1-1.3,1-2.1c0-0.8-0.3-1.6-1-2.1c-0.7-0.5-1.5-0.7-2.3-0.6h-0.8
			v5.4L264.1,41.3z M262.6,35.4h1.7c0.9-0.1,1.8,0.2,2.5,0.8c0.7,0.6,1.1,1.5,1.2,2.5c0,0.9-0.4,1.8-1,2.4c-0.7,0.6-1.6,0.9-2.6,0.9
			h-1.8V35.4z"/>
		<path class="st3" d="M274.8,38.6c0-1.6-1.2-2.8-2.7-2.8c-1.5,0-2.7,1.2-2.7,2.8c0,1.6,1.2,2.8,2.7,2.8c0,0,0,0,0,0
			C273.6,41.4,274.8,40.1,274.8,38.6C274.8,38.6,274.8,38.6,274.8,38.6 M275.5,38.6c0,1.9-1.4,3.5-3.3,3.5c-1.9,0-3.4-1.5-3.4-3.4
			c0-1.9,1.4-3.5,3.3-3.5c0,0,0.1,0,0.1,0C273.9,35.2,275.4,36.7,275.5,38.6"/>
		<path class="st3" d="M218.7,49c-0.5,1.2-1.7,2-2.9,2c-1.8,0-3.3-1.5-3.3-3.4c0-1.9,1.5-3.4,3.3-3.4l0,0c1.3,0,2.5,0.8,3,2h-1.3
			c-0.4-0.5-1-0.8-1.7-0.8c-1.2,0-2.1,1-2.1,2.3c0,1.2,0.9,2.2,2.1,2.2c0.6,0,1.2-0.3,1.6-0.8L218.7,49z"/>
		<path class="st3" d="M220.4,47.5c-0.1,1.2,0.8,2.3,2,2.3s2.2-0.8,2.3-2.1c0-0.1,0-0.2,0-0.3c0.1-1.2-0.8-2.3-2-2.3
			c-1.2-0.1-2.2,0.8-2.3,2.1C220.3,47.3,220.3,47.4,220.4,47.5 M225.8,47.5c0,1.9-1.5,3.4-3.3,3.5c-1.8,0-3.3-1.5-3.3-3.4
			c0-1.9,1.5-3.4,3.3-3.5c0,0,0,0,0,0C224.3,44.1,225.8,45.6,225.8,47.5C225.8,47.5,225.8,47.5,225.8,47.5"/>
		<polygon class="st3" points="226.7,44.2 228,44.2 230.7,49 230.7,44.2 231.8,44.2 231.8,50.8 230.5,50.8 227.9,46 227.9,50.8 
			226.7,50.8 		"/>
		<polygon class="st3" points="233.1,44.2 234.2,44.2 234.2,46.8 236.5,46.8 236.5,44.2 237.7,44.2 237.7,50.8 236.5,50.8 236.5,48 
			234.2,48 234.2,50.8 233.1,50.8 		"/>
		<polygon class="st3" points="238.9,44.2 242.3,44.2 242.3,45.4 240.1,45.4 240.1,46.9 242.2,46.9 242.2,48.1 240.1,48.1 
			240.1,49.6 242.3,49.6 242.3,50.8 238.9,50.8 		"/>
		<path class="st3" d="M249.3,49c-0.5,1.2-1.7,2-2.9,2c-1.8,0-3.3-1.5-3.3-3.4c0-1.9,1.5-3.4,3.3-3.4c1.3,0,2.5,0.8,3,2H248
			c-0.4-0.5-1-0.8-1.7-0.8c-1.2,0-2.1,1-2.1,2.3c0,1.2,0.9,2.2,2.1,2.2c0.6,0,1.2-0.3,1.6-0.8H249.3z"/>
		<rect x="250.1" y="44.2" class="st3" width="1.2" height="6.6"/>
		<polygon class="st3" points="252.5,44.2 254.1,44.2 255.8,49.2 257.5,44.2 259.1,44.2 259.1,50.8 257.9,50.8 257.9,45.8 
			256.3,50.8 255.3,50.8 253.6,45.8 253.6,50.8 252.5,50.8 		"/>
		<polygon class="st3" points="260.2,44.2 263.6,44.2 263.6,45.4 261.4,45.4 261.4,46.9 263.5,46.9 263.5,48.1 261.4,48.1 
			261.4,49.6 263.6,49.6 263.6,50.8 260.2,50.8 		"/>
		<polygon class="st3" points="264.7,44.2 266,44.2 268.6,49 268.6,44.2 269.8,44.2 269.8,50.8 268.5,50.8 265.8,46 265.8,50.8 
			264.7,50.8 		"/>
		<polygon class="st3" points="271.6,45.4 270.5,45.4 270.5,44.2 274,44.2 274,45.4 272.8,45.4 272.8,50.8 271.6,50.8 		"/>
		<path class="st3" d="M275.5,47.5c-0.1,1.2,0.8,2.3,2,2.3c1.2,0.1,2.2-0.8,2.3-2.1c0-0.1,0-0.2,0-0.3c0.1-1.2-0.8-2.3-2-2.3
			c-1.2-0.1-2.2,0.8-2.3,2.1C275.5,47.3,275.5,47.4,275.5,47.5 M280.9,47.5c0,1.9-1.5,3.4-3.3,3.5c-1.8,0-3.3-1.5-3.3-3.4
			c0-1.9,1.5-3.4,3.3-3.5c0,0,0,0,0,0C279.4,44.1,280.9,45.6,280.9,47.5C280.9,47.5,280.9,47.5,280.9,47.5"/>
		<g>
			<defs>
				<path id="SVGID_3_" d="M185.9,55.7L185.9,55.7L185.9,55.7L185.9,55.7 M178.1,35.4c-2.8,0-5.6,1.2-7.7,3.2L163.4,53
					c11.6-4.5,21.3,1.9,22.5,2.7c-7-5.1-1-19.2-1-19.2c-1.7-0.6-3.4-1-5.2-1.1L178.1,35.4z"/>
			</defs>
			<clipPath id="SVGID_4_">
				<use xlink:href="#SVGID_3_"  style="overflow:visible;"/>
			</clipPath>
			<g class="st11">
				
					<linearGradient id="SVGID_5_" gradientUnits="userSpaceOnUse" x1="-909.4183" y1="-125.6351" x2="-909.1652" y2="-125.6351" gradientTransform="matrix(96.226 -43.4477 43.4477 96.226 93126.1172 -27369.6816)">
					<stop  offset="0" style="stop-color:#6FAC55"/>
					<stop  offset="1" style="stop-color:#3C693F"/>
				</linearGradient>
				<polygon class="st12" points="156,38.8 182,26.7 193.2,52.2 167.2,64.4 				"/>
			</g>
		</g>
		<g>
			<defs>
				<path id="SVGID_6_" d="M184.2,39.5c-0.1,0.5-0.3,1-0.4,1.5c-0.1,0.5-0.2,1-0.3,1.5c-0.4,2-0.5,4.1-0.4,6.1c0.1,1,0.3,2,0.6,3
					c0.3,1,0.8,1.8,1.4,2.6c0.3,0.3,0.5,0.6,0.8,0.8c0.5,0.4,1,0.7,1.6,0.9c0.5,0.2,1,0.3,1.4,0.3c0.5,0.1,1,0.1,1.5,0.1
					c1.1-0.1,2.1-0.3,3.1-0.7c1-0.4,2-1,2.9-1.7c0.4-0.3,0.9-0.7,1.3-1.1c0.4-0.4,0.8-0.8,1.2-1.2c0.7-0.8,1.4-1.7,2-2.6
					c1.2-1.8,2.3-3.7,3.2-5.6c0.4-1,0.9-2,1.2-3c0.4-1,0.7-2,1-3h-0.1c-1,1.9-2,3.7-3.1,5.4c-1.1,1.7-2.3,3.4-3.5,4.9
					c-0.6,0.8-1.3,1.5-2,2.2c-0.3,0.3-0.7,0.7-1.1,1c-0.4,0.3-0.7,0.6-1.1,0.9c-0.7,0.5-1.5,0.9-2.3,1.2c-0.7,0.3-1.5,0.4-2.3,0.5
					c-0.4,0-0.8,0-1.1,0c-0.4,0-0.7-0.1-1.1-0.2c-0.3-0.1-0.7-0.3-1-0.4l-0.3-0.2c-0.2-0.1-0.3-0.3-0.5-0.4
					c-0.5-0.5-0.9-1.2-1.2-1.9c-0.3-0.8-0.5-1.6-0.7-2.4c-0.3-1.8-0.4-3.7-0.3-5.5c0.1-2,0.3-3.9,0.5-5.9h-0.1
					C184.8,37.5,184.5,38.5,184.2,39.5"/>
			</defs>
			<clipPath id="SVGID_7_">
				<use xlink:href="#SVGID_6_"  style="overflow:visible;"/>
			</clipPath>
			<g class="st13">
				
					<linearGradient id="SVGID_8_" gradientUnits="userSpaceOnUse" x1="-926.8577" y1="-115.184" x2="-926.6019" y2="-115.184" gradientTransform="matrix(-63.9867 -48.2174 48.2174 -63.9867 -53552.2578 -52010.1016)">
					<stop  offset="0" style="stop-color:#272425"/>
					<stop  offset="0.5" style="stop-color:#575859"/>
					<stop  offset="1" style="stop-color:#272425"/>
				</linearGradient>
				<polygon class="st14" points="173.7,49.2 191.4,25 215.4,43.7 197.8,67.9 				"/>
			</g>
		</g>
		<g>
			<defs>
				<path id="SVGID_9_" d="M189.1,52.9c0,0,7.1,3,16.3-14.7v-0.4c-1.7,0.9-10.9,5.3-19.6-1C185.7,36.9,183.2,51.4,189.1,52.9"/>
			</defs>
			<clipPath id="SVGID_10_">
				<use xlink:href="#SVGID_9_"  style="overflow:visible;"/>
			</clipPath>
			<g class="st15">
				
					<linearGradient id="SVGID_11_" gradientUnits="userSpaceOnUse" x1="-908.4177" y1="-125.7571" x2="-908.1647" y2="-125.7571" gradientTransform="matrix(83.2145 -37.4813 37.4813 83.2145 80494.5703 -23534.3281)">
					<stop  offset="0" style="stop-color:#E6AD4C"/>
					<stop  offset="1" style="stop-color:#F2E84F"/>
				</linearGradient>
				<polygon class="st16" points="176,40.4 201.2,28.6 211.8,52.9 186.6,64.7 				"/>
			</g>
		</g>
		<g>
			<defs>
				<path id="SVGID_12_" d="M190.5,42.3c-2.1,1-3,3.5-2,5.6c0.7,1.5,2.1,2.5,3.7,2.5l0,0c0.6,0,1.2-0.1,1.7-0.4c2.1-1,3-3.5,2.1-5.6
					c-0.7-1.5-2.1-2.5-3.7-2.5C191.6,41.9,191,42,190.5,42.3"/>
			</defs>
			<clipPath id="SVGID_13_">
				<use xlink:href="#SVGID_12_"  style="overflow:visible;"/>
			</clipPath>
			<g class="st17">
				
					<radialGradient id="SVGID_14_" cx="-892.1639" cy="-138.5572" r="0.2487" gradientTransform="matrix(35.3 0 0 36.4976 31680.9199 5097.75)" gradientUnits="userSpaceOnUse">
					<stop  offset="0" style="stop-color:#64A6DD"/>
					<stop  offset="1" style="stop-color:#353E89"/>
				</radialGradient>
				<rect x="187.9" y="41.9" class="st18" width="8.5" height="8.5"/>
			</g>
		</g>
		<path class="st10" d="M192.2,41.7c-2.4,0-4.3,2-4.3,4.5c0,0.6,0.1,1.2,0.4,1.8c0.7,1.6,2.2,2.6,3.9,2.6c0.6,0,1.2-0.1,1.8-0.4
			c2.2-1,3.1-3.6,2.2-5.9C195.4,42.7,193.9,41.7,192.2,41.7 M192.2,42.1c2.2,0,3.9,1.8,3.9,4c0,1.6-0.9,3.1-2.3,3.7
			c-0.5,0.2-1,0.4-1.6,0.4c-2.2,0-3.9-1.8-3.9-4.1c0-1.6,0.9-3,2.3-3.7C191.1,42.2,191.6,42.1,192.2,42.1"/>
		<path class="st3" d="M226.2,57.2l0.6-3.1H226l-0.6,3.1H226.2z M223.2,56l0.7-1.3l0,0L224,56H223.2z M222.5,57.2l0.3-0.6h1.2
			l0.1,0.6h1l-0.5-3.1h-1l-1.8,3.1H222.5z M218.5,57.2h0.7l0.5-2.4l0,0l0.5,2.4h1.2l0.6-3.1h-0.7l-0.5,2.3l0,0l-0.5-2.3h-1.2
			L218.5,57.2z M218,57.2l0.1-0.6h-1.4l0.1-0.7h1.3l0.1-0.6H217l0.1-0.6h1.4l0.1-0.6h-2.3l-0.6,3.1L218,57.2z M215.7,55.1
			c0.2-0.7-0.4-1-1-1c-0.6-0.1-1.3,0.3-1.5,0.9c-0.1,0.3,0,0.6,0.3,0.8c0.6,0.3,1.2,0.2,1.1,0.6c0,0.2-0.3,0.3-0.5,0.3
			s-0.5-0.2-0.4-0.4h-0.8c-0.2,0.8,0.4,1,1.1,1c0.7,0.1,1.3-0.3,1.5-1c0.2-0.8-0.5-0.9-1-1c-0.2-0.1-0.4-0.1-0.4-0.4
			c0.1-0.2,0.2-0.3,0.4-0.3c0.1,0,0.2,0,0.3,0.1c0,0.1,0,0.2,0,0.3L215.7,55.1z"/>
		<path class="st3" d="M237.8,57.2l0.6-3.1h-0.8l-0.6,3.1H237.8z M236.8,55c0.2-0.8-0.4-1-1-1c-0.6-0.1-1.3,0.3-1.5,0.9
			c-0.1,0.3,0,0.6,0.3,0.8c0.6,0.3,1.2,0.2,1.1,0.6c0,0.2-0.3,0.3-0.5,0.3s-0.5-0.2-0.4-0.4H234c-0.2,0.8,0.4,1,1.1,1
			c0.7,0.1,1.3-0.3,1.5-1c0.2-0.8-0.5-0.9-1-1c-0.2-0.1-0.4-0.1-0.4-0.4c0.1-0.2,0.2-0.3,0.4-0.3c0.1,0,0.2,0,0.3,0.1
			c0.1,0.1,0.1,0.2,0.1,0.3L236.8,55z M233.5,57.2l0.1-0.6h-1.5l0.1-0.7h1.3l0.1-0.6h-1.3l0.1-0.6h1.5l0.1-0.6h-2.3l-0.6,3.1H233.5z
			 M231.1,55c0.2-0.8-0.4-1-1-1c-0.6-0.1-1.3,0.3-1.5,0.9c-0.1,0.3,0,0.6,0.3,0.8c0.6,0.3,1.2,0.2,1.1,0.6c0,0.2-0.3,0.3-0.5,0.3
			s-0.5-0.2-0.4-0.4h-0.8c-0.2,0.8,0.4,1,1.1,1c0.7,0.1,1.3-0.3,1.5-1c0.2-0.8-0.5-0.9-1-1c-0.2-0.1-0.5-0.1-0.4-0.4
			c0.1-0.2,0.2-0.3,0.4-0.3c0.1,0,0.2,0,0.3,0.1c0.1,0.1,0.1,0.2,0.1,0.3L231.1,55z"/>
		<path class="st3" d="M206.3,37.1h-0.1h-0.1c-0.5,0.2-1,0.4-1.5,0.7c-2.7,1.3-5.7,2-8.7,2l0,0c-1,0-1.9-0.1-2.9-0.2
			c-6.2-1.7-5.7-2.5-7.9-3.4c-2.3-0.9-4.7-1.3-7.2-1.2l0,0c-2.9,0-5.8,1.2-7.9,3.3c0,0,0,0.1-0.1,0.1L163,52.8
			c-0.1,0.1-0.1,0.3,0.1,0.4c0.1,0.1,0.3,0.2,0.4,0.1c2.7-1,5.5-1.6,8.3-1.6c3.6,0,7.2,0.8,10.5,2.4c0.2,0.1,1.7,0.8,2.7,1.4h0.1
			h0.1h0.1c0.1,0.1,0.3,0.2,0.4,0.3l0,0l0,0l0,0c2.7,1.4,5.9,1.2,8.5-0.3h0c0.8-0.4,1.6-0.9,2.4-1.5c0.4-0.3,0.9-0.7,1.3-1.1
			c0.4-0.4,0.8-0.8,1.2-1.2c0.8-0.8,1.5-1.7,2.1-2.6c1.2-1.8,2.3-3.7,3.2-5.7c0.5-1,0.9-2,1.2-3c0.4-1,0.7-2,1-3c0-0.1,0-0.2,0-0.3
			C206.5,37.1,206.4,37.1,206.3,37.1z"/>
		<path class="st3" d="M218.7,38.6c0-1.6-1.2-2.8-2.7-2.8c-1.5,0-2.7,1.2-2.8,2.8c0,1.6,1.2,2.8,2.7,2.8c0,0,0,0,0,0
			C217.4,41.4,218.7,40.1,218.7,38.6C218.7,38.6,218.7,38.6,218.7,38.6 M219.3,38.6c0.1,1.9-1.4,3.5-3.3,3.6
			c-1.9,0.1-3.4-1.4-3.5-3.4s1.4-3.5,3.3-3.6c0,0,0.1,0,0.1,0C217.8,35.2,219.3,36.7,219.3,38.6"/>
		<polygon class="st3" points="220.3,35.3 221,35.3 221,41.3 223.6,41.3 223.6,41.9 220.3,41.9 		"/>
		<rect x="224.3" y="35.3" class="st3" width="0.6" height="6.6"/>
		<polygon class="st3" points="226.2,35.3 227.2,35.3 229.5,40.9 231.8,35.3 232.8,35.3 232.8,41.9 232.2,41.9 232.2,36 229.8,41.9 
			229.3,41.9 226.9,36 226.9,41.9 226.2,41.9 		"/>
		<path class="st3" d="M235.8,38.6c0.4,0,0.9,0,1.3-0.3c0.6-0.4,0.7-1.2,0.3-1.8c-0.1-0.2-0.3-0.4-0.6-0.5c-0.4-0.1-0.9-0.2-1.3-0.1
			h-0.8v2.7H235.8z M234.1,35.3h1.6c0.6,0,1.2,0.1,1.7,0.4c0.5,0.4,0.8,1,0.8,1.6c0,0.6-0.3,1.2-0.7,1.5c-0.5,0.3-1.1,0.5-1.6,0.4
			h-1.1v2.7h-0.6L234.1,35.3z"/>
		<path class="st3" d="M239.2,35.3h0.6v6.6h-0.6L239.2,35.3z M240.2,33.2l0.3,0.5l-1.7,1l-0.3-0.5L240.2,33.2z"/>
		<path class="st3" d="M244.9,39.1l-1.2-3l-1.2,3H244.9z M243.3,35.3h0.7l2.7,6.6h-0.7l-1-2.2h-2.9l-1,2.2h-0.7L243.3,35.3z"/>
		<path class="st3" d="M249,41.3c0.8,0.1,1.6-0.1,2.3-0.6c0.6-0.5,1-1.3,1-2.1c0-0.8-0.3-1.6-1-2.1c-0.7-0.5-1.5-0.7-2.3-0.6h-0.8
			v5.4L249,41.3z M247.5,35.4h1.7c0.9-0.1,1.8,0.2,2.5,0.8c0.7,0.6,1.1,1.5,1.2,2.5c0,0.9-0.4,1.8-1,2.4c-0.7,0.6-1.6,0.9-2.6,0.9
			h-1.8L247.5,35.4z"/>
		<path class="st3" d="M257.6,39.1l-1.2-3l-1.2,3H257.6z M256.1,35.3h0.7l2.7,6.6h-0.7l-1-2.2h-3l-1,2.2h-0.7L256.1,35.3z"/>
		<path class="st3" d="M264.1,41.3c0.8,0.1,1.6-0.1,2.3-0.6c0.6-0.5,1-1.3,1-2.1c0-0.8-0.3-1.6-1-2.1c-0.7-0.5-1.5-0.7-2.3-0.6h-0.8
			v5.4L264.1,41.3z M262.6,35.4h1.7c0.9-0.1,1.8,0.2,2.5,0.8c0.7,0.6,1.1,1.5,1.2,2.5c0,0.9-0.4,1.8-1,2.4c-0.7,0.6-1.6,0.9-2.6,0.9
			h-1.8V35.4z"/>
		<path class="st3" d="M274.8,38.6c0-1.6-1.2-2.8-2.7-2.8c-1.5,0-2.7,1.2-2.7,2.8c0,1.6,1.2,2.8,2.7,2.8c0,0,0,0,0,0
			C273.6,41.4,274.8,40.1,274.8,38.6C274.8,38.6,274.8,38.6,274.8,38.6 M275.5,38.6c0,1.9-1.4,3.5-3.3,3.5c-1.9,0-3.4-1.5-3.4-3.4
			c0-1.9,1.4-3.5,3.3-3.5c0,0,0.1,0,0.1,0C273.9,35.2,275.4,36.7,275.5,38.6"/>
		<path class="st3" d="M218.7,49c-0.5,1.2-1.7,2-2.9,2c-1.8,0-3.3-1.5-3.3-3.4c0-1.9,1.5-3.4,3.3-3.4l0,0c1.3,0,2.5,0.8,3,2h-1.3
			c-0.4-0.5-1-0.8-1.7-0.8c-1.2,0-2.1,1-2.1,2.3c0,1.2,0.9,2.2,2.1,2.2c0.6,0,1.2-0.3,1.6-0.8L218.7,49z"/>
		<path class="st3" d="M220.4,47.5c-0.1,1.2,0.8,2.3,2,2.3s2.2-0.8,2.3-2.1c0-0.1,0-0.2,0-0.3c0.1-1.2-0.8-2.3-2-2.3
			c-1.2-0.1-2.2,0.8-2.3,2.1C220.3,47.3,220.3,47.4,220.4,47.5 M225.8,47.5c0,1.9-1.5,3.4-3.3,3.5c-1.8,0-3.3-1.5-3.3-3.4
			c0-1.9,1.5-3.4,3.3-3.5c0,0,0,0,0,0C224.3,44.1,225.8,45.6,225.8,47.5C225.8,47.5,225.8,47.5,225.8,47.5"/>
		<polygon class="st3" points="226.7,44.2 228,44.2 230.7,49 230.7,44.2 231.8,44.2 231.8,50.8 230.5,50.8 227.9,46 227.9,50.8 
			226.7,50.8 		"/>
		<polygon class="st3" points="233.1,44.2 234.2,44.2 234.2,46.8 236.5,46.8 236.5,44.2 237.7,44.2 237.7,50.8 236.5,50.8 236.5,48 
			234.2,48 234.2,50.8 233.1,50.8 		"/>
		<polygon class="st3" points="238.9,44.2 242.3,44.2 242.3,45.4 240.1,45.4 240.1,46.9 242.2,46.9 242.2,48.1 240.1,48.1 
			240.1,49.6 242.3,49.6 242.3,50.8 238.9,50.8 		"/>
		<path class="st3" d="M249.3,49c-0.5,1.2-1.7,2-2.9,2c-1.8,0-3.3-1.5-3.3-3.4c0-1.9,1.5-3.4,3.3-3.4c1.3,0,2.5,0.8,3,2H248
			c-0.4-0.5-1-0.8-1.7-0.8c-1.2,0-2.1,1-2.1,2.3c0,1.2,0.9,2.2,2.1,2.2c0.6,0,1.2-0.3,1.6-0.8H249.3z"/>
		<rect x="250.1" y="44.2" class="st3" width="1.2" height="6.6"/>
		<polygon class="st3" points="252.5,44.2 254.1,44.2 255.8,49.2 257.5,44.2 259.1,44.2 259.1,50.8 257.9,50.8 257.9,45.8 
			256.3,50.8 255.3,50.8 253.6,45.8 253.6,50.8 252.5,50.8 		"/>
		<polygon class="st3" points="260.2,44.2 263.6,44.2 263.6,45.4 261.4,45.4 261.4,46.9 263.5,46.9 263.5,48.1 261.4,48.1 
			261.4,49.6 263.6,49.6 263.6,50.8 260.2,50.8 		"/>
		<polygon class="st3" points="264.7,44.2 266,44.2 268.6,49 268.6,44.2 269.8,44.2 269.8,50.8 268.5,50.8 265.8,46 265.8,50.8 
			264.7,50.8 		"/>
		<polygon class="st3" points="271.6,45.4 270.5,45.4 270.5,44.2 274,44.2 274,45.4 272.8,45.4 272.8,50.8 271.6,50.8 		"/>
		<path class="st3" d="M275.5,47.5c-0.1,1.2,0.8,2.3,2,2.3c1.2,0.1,2.2-0.8,2.3-2.1c0-0.1,0-0.2,0-0.3c0.1-1.2-0.8-2.3-2-2.3
			c-1.2-0.1-2.2,0.8-2.3,2.1C275.5,47.3,275.5,47.4,275.5,47.5 M280.9,47.5c0,1.9-1.5,3.4-3.3,3.5c-1.8,0-3.3-1.5-3.3-3.4
			c0-1.9,1.5-3.4,3.3-3.5c0,0,0,0,0,0C279.4,44.1,280.9,45.6,280.9,47.5C280.9,47.5,280.9,47.5,280.9,47.5"/>
		<g>
			<defs>
				<path id="SVGID_15_" d="M185.9,55.7L185.9,55.7L185.9,55.7L185.9,55.7 M178.1,35.4c-2.8,0-5.6,1.2-7.7,3.2L163.4,53
					c11.6-4.5,21.3,1.9,22.5,2.7c-7-5.1-1-19.2-1-19.2c-1.7-0.6-3.4-1-5.2-1.1L178.1,35.4z"/>
			</defs>
			<clipPath id="SVGID_16_">
				<use xlink:href="#SVGID_15_"  style="overflow:visible;"/>
			</clipPath>
			<g class="st19">
				
					<linearGradient id="SVGID_17_" gradientUnits="userSpaceOnUse" x1="-909.4183" y1="-125.6351" x2="-909.1652" y2="-125.6351" gradientTransform="matrix(96.226 -43.4477 43.4477 96.226 93126.1172 -27369.6816)">
					<stop  offset="0" style="stop-color:#6FAC55"/>
					<stop  offset="1" style="stop-color:#3C693F"/>
				</linearGradient>
				<polygon class="st20" points="156,38.8 182,26.7 193.2,52.2 167.2,64.4 				"/>
			</g>
		</g>
		<g>
			<defs>
				<path id="SVGID_18_" d="M184.2,39.5c-0.1,0.5-0.3,1-0.4,1.5c-0.1,0.5-0.2,1-0.3,1.5c-0.4,2-0.5,4.1-0.4,6.1c0.1,1,0.3,2,0.6,3
					c0.3,1,0.8,1.8,1.4,2.6c0.3,0.3,0.5,0.6,0.8,0.8c0.5,0.4,1,0.7,1.6,0.9c0.5,0.2,1,0.3,1.4,0.3c0.5,0.1,1,0.1,1.5,0.1
					c1.1-0.1,2.1-0.3,3.1-0.7c1-0.4,2-1,2.9-1.7c0.4-0.3,0.9-0.7,1.3-1.1c0.4-0.4,0.8-0.8,1.2-1.2c0.7-0.8,1.4-1.7,2-2.6
					c1.2-1.8,2.3-3.7,3.2-5.6c0.4-1,0.9-2,1.2-3c0.4-1,0.7-2,1-3h-0.1c-1,1.9-2,3.7-3.1,5.4c-1.1,1.7-2.3,3.4-3.5,4.9
					c-0.6,0.8-1.3,1.5-2,2.2c-0.3,0.3-0.7,0.7-1.1,1c-0.4,0.3-0.7,0.6-1.1,0.9c-0.7,0.5-1.5,0.9-2.3,1.2c-0.7,0.3-1.5,0.4-2.3,0.5
					c-0.4,0-0.8,0-1.1,0c-0.4,0-0.7-0.1-1.1-0.2c-0.3-0.1-0.7-0.3-1-0.4l-0.3-0.2c-0.2-0.1-0.3-0.3-0.5-0.4
					c-0.5-0.5-0.9-1.2-1.2-1.9c-0.3-0.8-0.5-1.6-0.7-2.4c-0.3-1.8-0.4-3.7-0.3-5.5c0.1-2,0.3-3.9,0.5-5.9h-0.1
					C184.8,37.5,184.5,38.5,184.2,39.5"/>
			</defs>
			<clipPath id="SVGID_19_">
				<use xlink:href="#SVGID_18_"  style="overflow:visible;"/>
			</clipPath>
			<g class="st21">
				
					<linearGradient id="SVGID_20_" gradientUnits="userSpaceOnUse" x1="-926.8577" y1="-115.184" x2="-926.6019" y2="-115.184" gradientTransform="matrix(-63.9867 -48.2174 48.2174 -63.9867 -53552.2578 -52010.1016)">
					<stop  offset="0" style="stop-color:#272425"/>
					<stop  offset="0.5" style="stop-color:#575859"/>
					<stop  offset="1" style="stop-color:#272425"/>
				</linearGradient>
				<polygon class="st22" points="173.7,49.2 191.4,25 215.4,43.7 197.8,67.9 				"/>
			</g>
		</g>
		<g>
			<defs>
				<path id="SVGID_21_" d="M189.1,52.9c0,0,7.1,3,16.3-14.7v-0.4c-1.7,0.9-10.9,5.3-19.6-1C185.7,36.9,183.2,51.4,189.1,52.9"/>
			</defs>
			<clipPath id="SVGID_22_">
				<use xlink:href="#SVGID_21_"  style="overflow:visible;"/>
			</clipPath>
			<g class="st23">
				
					<linearGradient id="SVGID_23_" gradientUnits="userSpaceOnUse" x1="-908.4177" y1="-125.7571" x2="-908.1647" y2="-125.7571" gradientTransform="matrix(83.2145 -37.4813 37.4813 83.2145 80494.5703 -23534.3281)">
					<stop  offset="0" style="stop-color:#E6AD4C"/>
					<stop  offset="1" style="stop-color:#F2E84F"/>
				</linearGradient>
				<polygon class="st24" points="176,40.4 201.2,28.6 211.8,52.9 186.6,64.7 				"/>
			</g>
		</g>
		<g>
			<defs>
				<path id="SVGID_24_" d="M190.5,42.3c-2.1,1-3,3.5-2,5.6c0.7,1.5,2.1,2.5,3.7,2.5l0,0c0.6,0,1.2-0.1,1.7-0.4c2.1-1,3-3.5,2.1-5.6
					c-0.7-1.5-2.1-2.5-3.7-2.5C191.6,41.9,191,42,190.5,42.3"/>
			</defs>
			<clipPath id="SVGID_25_">
				<use xlink:href="#SVGID_24_"  style="overflow:visible;"/>
			</clipPath>
			<g class="st25">
				
					<radialGradient id="SVGID_26_" cx="-892.1639" cy="-138.5572" r="0.2487" gradientTransform="matrix(35.3 0 0 36.4976 31680.9199 5097.75)" gradientUnits="userSpaceOnUse">
					<stop  offset="0" style="stop-color:#64A6DD"/>
					<stop  offset="1" style="stop-color:#353E89"/>
				</radialGradient>
				<rect x="187.9" y="41.9" class="st26" width="8.5" height="8.5"/>
			</g>
		</g>
		<path class="st3" d="M192.2,41.7c-2.4,0-4.3,2-4.3,4.5c0,0.6,0.1,1.2,0.4,1.8c0.7,1.6,2.2,2.6,3.9,2.6c0.6,0,1.2-0.1,1.8-0.4
			c2.2-1,3.1-3.6,2.2-5.9C195.4,42.7,193.9,41.7,192.2,41.7 M192.2,42.1c2.2,0,3.9,1.8,3.9,4c0,1.6-0.9,3.1-2.3,3.7
			c-0.5,0.2-1,0.4-1.6,0.4c-2.2,0-3.9-1.8-3.9-4.1c0-1.6,0.9-3,2.3-3.7C191.1,42.2,191.6,42.1,192.2,42.1"/>
		<path class="st3" d="M226.2,57.2l0.6-3.1H226l-0.6,3.1H226.2z M223.2,56l0.7-1.3l0,0L224,56H223.2z M222.5,57.2l0.3-0.6h1.2
			l0.1,0.6h1l-0.5-3.1h-1l-1.8,3.1H222.5z M218.5,57.2h0.7l0.5-2.4l0,0l0.5,2.4h1.2l0.6-3.1h-0.7l-0.5,2.3l0,0l-0.5-2.3h-1.2
			L218.5,57.2z M218,57.2l0.1-0.6h-1.4l0.1-0.7h1.3l0.1-0.6H217l0.1-0.6h1.4l0.1-0.6h-2.3l-0.6,3.1L218,57.2z M215.7,55.1
			c0.2-0.7-0.4-1-1-1c-0.6-0.1-1.3,0.3-1.5,0.9c-0.1,0.3,0,0.6,0.3,0.8c0.6,0.3,1.2,0.2,1.1,0.6c0,0.2-0.3,0.3-0.5,0.3
			s-0.5-0.2-0.4-0.4h-0.8c-0.2,0.8,0.4,1,1.1,1c0.7,0.1,1.3-0.3,1.5-1c0.2-0.8-0.5-0.9-1-1c-0.2-0.1-0.4-0.1-0.4-0.4
			c0.1-0.2,0.2-0.3,0.4-0.3c0.1,0,0.2,0,0.3,0.1c0,0.1,0,0.2,0,0.3L215.7,55.1z"/>
		<path class="st3" d="M237.8,57.2l0.6-3.1h-0.8l-0.6,3.1H237.8z M236.8,55c0.2-0.8-0.4-1-1-1c-0.6-0.1-1.3,0.3-1.5,0.9
			c-0.1,0.3,0,0.6,0.3,0.8c0.6,0.3,1.2,0.2,1.1,0.6c0,0.2-0.3,0.3-0.5,0.3s-0.5-0.2-0.4-0.4H234c-0.2,0.8,0.4,1,1.1,1
			c0.7,0.1,1.3-0.3,1.5-1c0.2-0.8-0.5-0.9-1-1c-0.2-0.1-0.4-0.1-0.4-0.4c0.1-0.2,0.2-0.3,0.4-0.3c0.1,0,0.2,0,0.3,0.1
			c0.1,0.1,0.1,0.2,0.1,0.3L236.8,55z M233.5,57.2l0.1-0.6h-1.5l0.1-0.7h1.3l0.1-0.6h-1.3l0.1-0.6h1.5l0.1-0.6h-2.3l-0.6,3.1H233.5z
			 M231.1,55c0.2-0.8-0.4-1-1-1c-0.6-0.1-1.3,0.3-1.5,0.9c-0.1,0.3,0,0.6,0.3,0.8c0.6,0.3,1.2,0.2,1.1,0.6c0,0.2-0.3,0.3-0.5,0.3
			s-0.5-0.2-0.4-0.4h-0.8c-0.2,0.8,0.4,1,1.1,1c0.7,0.1,1.3-0.3,1.5-1c0.2-0.8-0.5-0.9-1-1c-0.2-0.1-0.5-0.1-0.4-0.4
			c0.1-0.2,0.2-0.3,0.4-0.3c0.1,0,0.2,0,0.3,0.1c0.1,0.1,0.1,0.2,0.1,0.3L231.1,55z"/>
		<rect y="373.9" class="st0" width="297.6" height="45.7"/>
	</g>
</g>
</svg>
