<svg xmlns="http://www.w3.org/2000/svg" viewBox="0 0 239.66 39.86"><defs><style>.cls-1{fill:#fff;}.cls-2{fill:#2565ae;}</style></defs><title>Asset 5</title><g id="Layer_2" data-name="Layer 2"><g id="Layer_1-2" data-name="Layer 1"><rect class="cls-1" x="147.33" width="92.33" height="23.56"/><rect class="cls-1" x="118.76" width="25.12" height="23.56"/><path class="cls-2" d="M153.75,36.4a1.48,1.48,0,0,0-1.08.35,1.15,1.15,0,0,0-.14.17.82.82,0,0,0-.09.19l-.06.18H153l0-.14a.55.55,0,0,1,.31-.27,1,1,0,0,1,.39-.07c.39,0,.59.14.59.39a1.64,1.64,0,0,1-.07.43l-.72,0a2.32,2.32,0,0,0-1.14.29,1.11,1.11,0,0,0-.57,1,.7.7,0,0,0,.21.57.75.75,0,0,0,.29.2,1.33,1.33,0,0,0,.45.08,1.27,1.27,0,0,0,.85-.29,1.12,1.12,0,0,0,.21-.19l-.05.39h.57l.05-.31c.09-.4.22-.89.38-1.46a2.72,2.72,0,0,0,.15-.74.74.74,0,0,0-.06-.28C154.76,36.56,154.38,36.39,153.75,36.4Zm.41,1.81a1.36,1.36,0,0,1-.09.23,2.33,2.33,0,0,1-.35.58.9.9,0,0,1-.73.33c-.33,0-.5-.16-.5-.47,0-.49.37-.76,1.1-.81l.61,0Z"/><polygon class="cls-2" points="151.42 35.1 150.3 38.98 149.15 35.1 148.38 35.1 147.02 39.68 147.63 39.68 148.79 35.83 149.9 39.68 150.67 39.68 152.03 35.1 151.42 35.1"/><path class="cls-2" d="M143.91,28.21a1.52,1.52,0,0,0-1.09.36.76.76,0,0,0-.13.17,1.14,1.14,0,0,0-.1.19l-.06.18h.64l.06-.14a.55.55,0,0,1,.3-.28,1.23,1.23,0,0,1,.39-.07c.4,0,.6.14.6.4a1.59,1.59,0,0,1-.08.42l-.71,0a2.44,2.44,0,0,0-1.15.29,1.12,1.12,0,0,0-.57,1,.8.8,0,0,0,.21.57.7.7,0,0,0,.29.19,1.21,1.21,0,0,0,.46.08,1.3,1.3,0,0,0,.85-.28l.21-.2-.05.39h.56l.06-.3c.08-.41.21-.9.38-1.47a3.68,3.68,0,0,0,.15-.74.68.68,0,0,0-.07-.27C144.92,28.37,144.53,28.21,143.91,28.21Zm.4,1.81a2.09,2.09,0,0,1-.08.23,2.45,2.45,0,0,1-.35.58.93.93,0,0,1-.73.34c-.34,0-.5-.17-.5-.48,0-.48.37-.75,1.09-.81l.62,0Z"/><path class="cls-2" d="M147.19,31.11l-.15,0-.22,0c-.2,0-.3-.08-.3-.22a.81.81,0,0,1,0-.19l.07-.25.54-1.8h.67l.13-.41h-.67l.25-.81-.64.18-.2.63H146l-.14.41h.7l-.52,1.62-.06.21-.07.28a.63.63,0,0,0,0,.26c0,.33.22.5.63.5l.37,0,.16,0Z"/><polygon class="cls-2" points="130.9 26.91 129.55 31.49 130.2 31.49 131.56 26.91 130.9 26.91"/><polygon class="cls-2" points="142.13 27.54 142.3 26.91 141.61 26.91 141.42 27.54 142.13 27.54"/><polygon class="cls-2" points="147.94 31.49 148.54 31.49 149.51 28.3 148.89 28.3 147.94 31.49"/><polygon class="cls-2" points="149.94 26.91 149.24 26.91 149.05 27.54 149.76 27.54 149.94 26.91"/><polygon class="cls-2" points="151.28 31.49 153.34 28.3 152.67 28.3 151.11 30.91 150.74 28.3 150.11 28.3 150.67 31.49 151.28 31.49"/><polygon class="cls-2" points="140.31 31.49 140.91 31.49 141.88 28.3 141.25 28.3 140.31 31.49"/><path class="cls-2" d="M134.49,28.37a.9.9,0,0,0-.57-.16,1.65,1.65,0,0,0-.86.23,1.27,1.27,0,0,0-.21.15l-.15.15.08-.44h-.56l-.9,3.19h.62l.37-1.26c.32-1.07.77-1.6,1.37-1.61.32,0,.49.16.5.45a2.3,2.3,0,0,1-.1.55l-.55,1.87h.6l.56-1.86a1.89,1.89,0,0,0,.11-.62v-.15A.65.65,0,0,0,134.49,28.37Z"/><path class="cls-2" d="M139.57,28.33a1.61,1.61,0,0,0-.63-.12,1.64,1.64,0,0,0-.6.1,1.78,1.78,0,0,0-.66.41,2.16,2.16,0,0,0-.5.84,2.92,2.92,0,0,0-.19,1,1,1,0,0,0,.33.8,1.25,1.25,0,0,0,.83.26,1.9,1.9,0,0,0,.89-.18,1.33,1.33,0,0,0,.67-.76l0-.11h-.63a1.39,1.39,0,0,1-.32.47.94.94,0,0,1-.54.17.88.88,0,0,1-.29-.05.52.52,0,0,1-.33-.55,2.5,2.5,0,0,1,.06-.51,2.74,2.74,0,0,1,.17-.53c.24-.6.58-.9,1-.91a.67.67,0,0,1,.28.06.37.37,0,0,1,.26.37,1.38,1.38,0,0,1,0,.26H140l0-.1a.88.88,0,0,0,0-.16A.72.72,0,0,0,139.57,28.33Z"/><polygon class="cls-2" points="136.43 26.91 136.25 27.54 136.95 27.54 137.13 26.91 136.43 26.91"/><polygon class="cls-2" points="135.13 31.49 135.74 31.49 136.7 28.3 136.08 28.3 135.13 31.49"/><path class="cls-2" d="M155.87,31.49l.06-.3c.09-.41.21-.9.38-1.47a2.66,2.66,0,0,0,.15-.74.66.66,0,0,0-.06-.27c-.15-.34-.53-.5-1.16-.5a1.48,1.48,0,0,0-1.08.36.79.79,0,0,0-.14.17.66.66,0,0,0-.09.19l-.06.18h.63l.06-.14a.53.53,0,0,1,.31-.28,1.17,1.17,0,0,1,.38-.07c.4,0,.6.14.6.4a1.59,1.59,0,0,1-.08.42l-.71,0a2.4,2.4,0,0,0-1.14.29,1.15,1.15,0,0,0-.58,1,.8.8,0,0,0,.21.57.67.67,0,0,0,.3.19,1.12,1.12,0,0,0,.45.08,1.28,1.28,0,0,0,.85-.28,1.24,1.24,0,0,0,.21-.2l-.05.39Zm-.66-.66a.93.93,0,0,1-.73.34c-.34,0-.5-.17-.5-.48,0-.48.37-.75,1.09-.81l.62,0,0,.17a2.18,2.18,0,0,1-.09.23A2.16,2.16,0,0,1,155.21,30.83Z"/><path class="cls-2" d="M204,31.16a2,2,0,0,0,.18-.21l.11-.18.08-.17h-.63a1.93,1.93,0,0,1-.22.32.83.83,0,0,1-.63.25.65.65,0,0,1-.46-.16.63.63,0,0,1-.19-.47,2.15,2.15,0,0,1,.09-.53h2.22l0-.18.06-.23c0-.14,0-.28,0-.41a.92.92,0,0,0-.23-.65,1.11,1.11,0,0,0-.34-.22,1.62,1.62,0,0,0-.58-.11,1.79,1.79,0,0,0-.72.15,1.39,1.39,0,0,0-.5.32,2.79,2.79,0,0,0-.52.87,2.42,2.42,0,0,0-.2,1,1,1,0,0,0,.09.45c.14.4.5.6,1.09.6A1.62,1.62,0,0,0,204,31.16Zm-1.39-1.91a1,1,0,0,1,.89-.63c.37,0,.56.18.56.52a1.45,1.45,0,0,1,0,.28l-.05.17h-1.51Z"/><path class="cls-2" d="M208.43,26.91l-.52,1.77a1.06,1.06,0,0,0-.94-.47,1.56,1.56,0,0,0-1.33.77,2.69,2.69,0,0,0-.46,1.51,1.13,1.13,0,0,0,.25.78,1,1,0,0,0,.76.31,1.82,1.82,0,0,0,1-.42l-.06.33h.55L209,26.91Zm-.81,2.85a4.56,4.56,0,0,1-.14.44,1.92,1.92,0,0,1-.43.68.89.89,0,0,1-.65.29c-.39,0-.58-.22-.58-.66a2.44,2.44,0,0,1,.31-1.17c.26-.48.56-.72.93-.72a.67.67,0,0,1,.46.17.61.61,0,0,1,.18.45A1.78,1.78,0,0,1,207.62,29.76Z"/><path class="cls-2" d="M211.52,28.32a1.62,1.62,0,0,0-.58-.11,1.79,1.79,0,0,0-.72.15,1.27,1.27,0,0,0-.49.32,2.62,2.62,0,0,0-.53.87,2.42,2.42,0,0,0-.2,1,1,1,0,0,0,.09.45c.14.4.5.6,1.09.6a1.62,1.62,0,0,0,1.21-.42,2,2,0,0,0,.18-.21l.11-.18.08-.17h-.63a1.93,1.93,0,0,1-.22.32.83.83,0,0,1-.63.25.66.66,0,0,1-.46-.16.6.6,0,0,1-.19-.47,1.83,1.83,0,0,1,.1-.53h2.21l.05-.18.06-.23c0-.14,0-.28,0-.41a.92.92,0,0,0-.23-.65A1.11,1.11,0,0,0,211.52,28.32Zm-.11,1.1,0,.17h-1.51l.15-.34a1,1,0,0,1,.89-.63c.37,0,.56.18.56.52A1.45,1.45,0,0,1,211.41,29.42Z"/><path class="cls-2" d="M192.74,31.58a1.67,1.67,0,0,0,1.27-.49,2,2,0,0,0,.27-.34,3.34,3.34,0,0,0,.38-.9,2.18,2.18,0,0,0,.07-.55,1,1,0,0,0-.37-.84,1.43,1.43,0,0,0-.91-.25l-.27,0a1.67,1.67,0,0,0-1.26.86,2.32,2.32,0,0,0-.2.38,2.74,2.74,0,0,0-.21,1,1,1,0,0,0,.35.84A1.36,1.36,0,0,0,192.74,31.58ZM192.21,30a2.4,2.4,0,0,1,.41-.92,1.07,1.07,0,0,1,.85-.48.65.65,0,0,1,.46.17.62.62,0,0,1,.17.46,2.65,2.65,0,0,1-.23,1,2.16,2.16,0,0,1-.17.34,1,1,0,0,1-.91.62c-.44,0-.65-.22-.64-.65A2,2,0,0,1,192.21,30Z"/><path class="cls-2" d="M158.16,36.51a1.64,1.64,0,0,0-.63-.11,1.89,1.89,0,0,0-.6.09,1.68,1.68,0,0,0-.66.42,2.12,2.12,0,0,0-.5.83,2.77,2.77,0,0,0-.19,1,1,1,0,0,0,.33.79,1.2,1.2,0,0,0,.83.27,2.1,2.1,0,0,0,.88-.18,1.41,1.41,0,0,0,.68-.76l0-.12h-.63a1.18,1.18,0,0,1-.33.47.82.82,0,0,1-.53.17.56.56,0,0,1-.29-.05.48.48,0,0,1-.33-.54,2.52,2.52,0,0,1,.06-.52,3.27,3.27,0,0,1,.17-.53c.24-.6.58-.9,1-.9a.87.87,0,0,1,.28,0,.38.38,0,0,1,.26.37,1.39,1.39,0,0,1,0,.27h.62l0-.11a.81.81,0,0,0,0-.16A.7.7,0,0,0,158.16,36.51Z"/><path class="cls-2" d="M201.87,26.91a3.26,3.26,0,0,0-.47,0h-.17a1.06,1.06,0,0,0-.65.28,1.8,1.8,0,0,0-.31.64l-.15.51h-.62l-.1.41h.6l-.81,2.78h.61l.82-2.78h.72l.11-.41h-.72l.16-.54a.61.61,0,0,1,.65-.48h.22Z"/><path class="cls-2" d="M198.55,28.86a.71.71,0,0,0-.3-.49.9.9,0,0,0-.57-.16,1.65,1.65,0,0,0-.86.23,1.39,1.39,0,0,0-.22.15l-.15.15.09-.44H196l-.9,3.19h.62l.37-1.26c.31-1.07.77-1.6,1.37-1.61.32,0,.49.16.5.45a2.3,2.3,0,0,1-.1.55l-.55,1.87h.6l.56-1.86a2.2,2.2,0,0,0,.11-.62Z"/><polygon class="cls-2" points="218.67 32.72 219.36 32.72 219.91 31.88 219.36 31.88 218.67 32.72"/><path class="cls-2" d="M224.92,27.17a.23.23,0,0,1-.21.16.24.24,0,0,1-.12,0l-.44-.22a.62.62,0,0,0-.31-.06.55.55,0,0,0-.55.43c0,.1-.06.21-.09.34h.41l0-.11c.05-.12.12-.19.22-.19l.16,0,.42.21a.82.82,0,0,0,.31.07c.3,0,.5-.21.61-.66l0-.11H225Z"/><path class="cls-2" d="M223.8,28.21a1.48,1.48,0,0,0-1.08.36.76.76,0,0,0-.13.17.69.69,0,0,0-.1.19l-.06.18h.64l.06-.14a.49.49,0,0,1,.3-.28,1.23,1.23,0,0,1,.39-.07c.39,0,.59.14.59.4a1.52,1.52,0,0,1-.07.42l-.71,0a2.44,2.44,0,0,0-1.15.29,1.12,1.12,0,0,0-.57,1,.8.8,0,0,0,.21.57.64.64,0,0,0,.29.19,1.12,1.12,0,0,0,.45.08,1.26,1.26,0,0,0,.85-.28,1.72,1.72,0,0,0,.22-.2l-.06.39h.57l.06-.3c.08-.41.21-.9.38-1.47A3,3,0,0,0,225,29a.66.66,0,0,0-.06-.27C224.81,28.37,224.43,28.21,223.8,28.21Zm.41,1.81a1.09,1.09,0,0,1-.09.23,2.46,2.46,0,0,1-.34.58.93.93,0,0,1-.74.34c-.33,0-.5-.17-.5-.48,0-.48.38-.75,1.1-.81l.61,0Z"/><path class="cls-2" d="M228.48,28.46a1.43,1.43,0,0,0-.91-.25l-.27,0a1.67,1.67,0,0,0-1.26.86,2.32,2.32,0,0,0-.2.38,2.74,2.74,0,0,0-.21,1,1,1,0,0,0,.35.84,1.36,1.36,0,0,0,.88.25,1.67,1.67,0,0,0,1.27-.49,2,2,0,0,0,.27-.34,3.34,3.34,0,0,0,.38-.9,2.18,2.18,0,0,0,.07-.55A1,1,0,0,0,228.48,28.46ZM228,30.21a3.59,3.59,0,0,1-.17.34,1,1,0,0,1-.91.62c-.44,0-.65-.22-.64-.65a2,2,0,0,1,.06-.5,2.4,2.4,0,0,1,.41-.92,1.07,1.07,0,0,1,.85-.48.65.65,0,0,1,.46.17.62.62,0,0,1,.17.46A2.65,2.65,0,0,1,228,30.21Z"/><path class="cls-2" d="M216.66,28.21a1.48,1.48,0,0,0-1.08.36.79.79,0,0,0-.14.17.66.66,0,0,0-.09.19l-.06.18h.63L216,29a.53.53,0,0,1,.31-.28,1.22,1.22,0,0,1,.38-.07c.4,0,.6.14.6.4a1.59,1.59,0,0,1-.08.42l-.71,0a2.4,2.4,0,0,0-1.14.29,1.15,1.15,0,0,0-.58,1,.8.8,0,0,0,.21.57.67.67,0,0,0,.3.19,1.12,1.12,0,0,0,.45.08,1.28,1.28,0,0,0,.85-.28,1.24,1.24,0,0,0,.21-.2l-.05.39h.56l.06-.3c.09-.41.21-.9.38-1.47a2.66,2.66,0,0,0,.15-.74.66.66,0,0,0-.06-.27C217.67,28.37,217.29,28.21,216.66,28.21Zm.41,1.81a1.09,1.09,0,0,1-.09.23,2.16,2.16,0,0,1-.35.58.91.91,0,0,1-.73.34c-.34,0-.5-.17-.5-.48,0-.48.37-.75,1.1-.81l.61,0Z"/><path class="cls-2" d="M190,30.41a1,1,0,0,1-.45.52,1.36,1.36,0,0,1-.67.17,1.47,1.47,0,0,1-.69-.18.87.87,0,0,1-.41-.57,1.37,1.37,0,0,1,0-.36,3.11,3.11,0,0,1,.07-.67,3.83,3.83,0,0,1,.21-.68,2.92,2.92,0,0,1,.38-.65,1.94,1.94,0,0,1,.4-.41,1.63,1.63,0,0,1,.44-.21,1.56,1.56,0,0,1,.44-.06c.58,0,.87.25.89.76v.13h.66V28a1.33,1.33,0,0,0-.09-.49c-.19-.48-.64-.71-1.36-.71a2.45,2.45,0,0,0-2.39,1.68,3.28,3.28,0,0,0-.21.67,3.11,3.11,0,0,0-.1.84,1.48,1.48,0,0,0,.48,1.2,2,2,0,0,0,1.26.37,2.58,2.58,0,0,0,.88-.15,1.6,1.6,0,0,0,.54-.36,1.76,1.76,0,0,0,.25-.34,2,2,0,0,0,.18-.35l0-.11h-.66Z"/><path class="cls-2" d="M221.07,28.33a1.78,1.78,0,0,0-1.89.39,2.16,2.16,0,0,0-.5.84,2.68,2.68,0,0,0-.19,1,1,1,0,0,0,.33.8,1.22,1.22,0,0,0,.82.26,1.87,1.87,0,0,0,.89-.18,1.34,1.34,0,0,0,.68-.76l0-.11h-.64a1.15,1.15,0,0,1-.32.47.88.88,0,0,1-.53.17.84.84,0,0,1-.29-.05.49.49,0,0,1-.33-.55,2.5,2.5,0,0,1,.06-.51,3.67,3.67,0,0,1,.16-.53c.25-.6.59-.9,1-.91a.67.67,0,0,1,.28.06.37.37,0,0,1,.26.37.92.92,0,0,1,0,.26h.63l0-.1a.86.86,0,0,0,0-.16A.71.71,0,0,0,221.07,28.33Z"/><path class="cls-2" d="M214.74,28.21a1.06,1.06,0,0,0-.6.18,2.36,2.36,0,0,0-.43.45l.1-.54h-.53l-.93,3.19H213l.44-1.48a4.59,4.59,0,0,1,.17-.48,1.69,1.69,0,0,1,.13-.27.74.74,0,0,1,.16-.2.8.8,0,0,1,.62-.28l.25,0,.17-.57Z"/><path class="cls-2" d="M179,35.09l-.52,1.77a1.05,1.05,0,0,0-.94-.46,1.56,1.56,0,0,0-1.33.76,2.7,2.7,0,0,0-.45,1.51,1.12,1.12,0,0,0,.25.79,1,1,0,0,0,.75.31,1.77,1.77,0,0,0,1-.43l-.06.34h.55l1.32-4.59Zm-.81,2.85a3.81,3.81,0,0,1-.14.44,1.88,1.88,0,0,1-.43.69.86.86,0,0,1-.64.28c-.4,0-.59-.21-.59-.66a2.44,2.44,0,0,1,.31-1.17c.26-.47.57-.71.93-.71a.67.67,0,0,1,.46.17.58.58,0,0,1,.18.45A1.72,1.72,0,0,1,178.2,37.94Z"/><path class="cls-2" d="M167.49,36.55a1,1,0,0,0-.57-.15,1.62,1.62,0,0,0-.86.23,1.39,1.39,0,0,0-.22.15l-.15.15.09-.44h-.56l-.9,3.19h.62l.36-1.26c.32-1.07.78-1.61,1.38-1.61.32,0,.49.15.5.45a2.39,2.39,0,0,1-.1.55l-.55,1.87h.6l.56-1.86a2.26,2.26,0,0,0,.11-.63v-.14A.73.73,0,0,0,167.49,36.55Z"/><polygon class="cls-2" points="177.02 31.49 178.38 26.91 177.77 26.91 176.65 30.8 175.5 26.91 174.72 26.91 173.37 31.49 173.98 31.49 175.13 27.64 176.25 31.49 177.02 31.49"/><polygon class="cls-2" points="180.18 26.91 179.53 26.91 178.18 31.49 178.83 31.49 180.18 26.91"/><polygon class="cls-2" points="171.71 39.68 172.33 39.68 173.67 35.09 173.06 35.09 171.71 39.68"/><path class="cls-2" d="M170.13,36.4a1.48,1.48,0,0,0-1.08.35,1.15,1.15,0,0,0-.14.17.82.82,0,0,0-.09.19l-.06.18h.64l0-.14a.55.55,0,0,1,.31-.27,1,1,0,0,1,.39-.07c.39,0,.59.14.59.39a1.64,1.64,0,0,1-.07.43l-.72,0a2.32,2.32,0,0,0-1.14.29,1.11,1.11,0,0,0-.57,1,.7.7,0,0,0,.21.57.75.75,0,0,0,.29.2,1.33,1.33,0,0,0,.45.08,1.27,1.27,0,0,0,.85-.29,1.12,1.12,0,0,0,.21-.19l-.05.39h.57l0-.31c.09-.4.22-.89.38-1.46a2.72,2.72,0,0,0,.15-.74.74.74,0,0,0-.06-.28C171.14,36.56,170.76,36.39,170.13,36.4Zm.41,1.81a1.36,1.36,0,0,1-.09.23,2.33,2.33,0,0,1-.35.58.9.9,0,0,1-.73.33c-.33,0-.5-.16-.5-.47,0-.49.37-.76,1.1-.81l.61,0Z"/><path class="cls-2" d="M173.3,28.2V28a1.33,1.33,0,0,0-.09-.49c-.19-.48-.65-.71-1.36-.71a2.45,2.45,0,0,0-2.39,1.68,3.28,3.28,0,0,0-.21.67,3.59,3.59,0,0,0-.11.84,1.49,1.49,0,0,0,.49,1.2,2,2,0,0,0,1.26.37,2.49,2.49,0,0,0,.87-.15,1.54,1.54,0,0,0,.55-.36,1.76,1.76,0,0,0,.25-.34,2,2,0,0,0,.18-.35l0-.11h-.67l0,.14a1,1,0,0,1-.45.52,1.36,1.36,0,0,1-.67.17,1.47,1.47,0,0,1-.69-.18.87.87,0,0,1-.41-.57,1.37,1.37,0,0,1,0-.36,3.11,3.11,0,0,1,.07-.67,3.83,3.83,0,0,1,.21-.68,3.35,3.35,0,0,1,.37-.65,2.27,2.27,0,0,1,.41-.41,1.63,1.63,0,0,1,.44-.21,1.56,1.56,0,0,1,.44-.06c.58,0,.87.26.89.76v.13Z"/><path class="cls-2" d="M162,28.68a1.06,1.06,0,0,0-.94-.47,1.56,1.56,0,0,0-1.33.77,2.69,2.69,0,0,0-.46,1.51,1.13,1.13,0,0,0,.25.78,1,1,0,0,0,.76.31,1.82,1.82,0,0,0,1-.42l-.06.33h.55l1.32-4.58h-.61Zm-.29,1.08a4.56,4.56,0,0,1-.14.44,2.07,2.07,0,0,1-.43.68.89.89,0,0,1-.65.29c-.39,0-.58-.22-.58-.66a2.44,2.44,0,0,1,.31-1.17c.26-.48.56-.72.93-.72a.69.69,0,0,1,.46.17.61.61,0,0,1,.18.45A2.2,2.2,0,0,1,161.71,29.76Z"/><polygon class="cls-2" points="182.41 29.99 184 29.99 184.13 29.55 182.54 29.55 182.41 29.99"/><polygon class="cls-2" points="158.9 39.68 159.5 39.68 160.46 36.49 159.84 36.49 158.9 39.68"/><path class="cls-2" d="M164.66,29.46a2.44,2.44,0,0,0-1.15.29,1.12,1.12,0,0,0-.57,1,.8.8,0,0,0,.21.57.7.7,0,0,0,.29.19,1.17,1.17,0,0,0,.46.08,1.3,1.3,0,0,0,.85-.28l.21-.2-.05.39h.56l.06-.3c.08-.41.21-.9.38-1.47a3.68,3.68,0,0,0,.15-.74.68.68,0,0,0-.07-.27c-.14-.34-.53-.5-1.15-.5a1.5,1.5,0,0,0-1.09.36.76.76,0,0,0-.13.17,1.14,1.14,0,0,0-.1.19l-.06.18h.64l.06-.14a.55.55,0,0,1,.3-.28,1.23,1.23,0,0,1,.39-.07c.4,0,.6.14.6.4a1.59,1.59,0,0,1-.08.42Zm.58.56a2.09,2.09,0,0,1-.08.23,2.45,2.45,0,0,1-.35.58.93.93,0,0,1-.73.34c-.34,0-.51-.17-.5-.48,0-.48.37-.75,1.09-.81l.62,0Z"/><polygon class="cls-2" points="160.19 35.09 160.01 35.73 160.71 35.73 160.89 35.09 160.19 35.09"/><path class="cls-2" d="M163.6,36.64a1.43,1.43,0,0,0-.91-.24h-.27a1.69,1.69,0,0,0-1.26.87,2,2,0,0,0-.2.38,2.73,2.73,0,0,0-.21,1,1,1,0,0,0,.35.84,1.34,1.34,0,0,0,.88.26,1.71,1.71,0,0,0,1.27-.49A2.61,2.61,0,0,0,163.9,38a2.2,2.2,0,0,0,.07-.56A1,1,0,0,0,163.6,36.64Zm-.49,1.76a3.59,3.59,0,0,1-.17.34,1,1,0,0,1-.91.61.56.56,0,0,1-.64-.64,2,2,0,0,1,.06-.5,2.34,2.34,0,0,1,.41-.92,1.07,1.07,0,0,1,.85-.48.57.57,0,0,1,.63.63A2.65,2.65,0,0,1,163.11,38.4Z"/><path class="cls-2" d="M210.14,36.4a1.48,1.48,0,0,0-1.08.35,1.15,1.15,0,0,0-.14.17.82.82,0,0,0-.09.19l-.06.18h.63l.06-.14a.55.55,0,0,1,.31-.27,1,1,0,0,1,.38-.07q.6,0,.6.39a1.73,1.73,0,0,1-.08.43l-.71,0a2.32,2.32,0,0,0-1.14.29,1.11,1.11,0,0,0-.57,1,.7.7,0,0,0,.21.57.69.69,0,0,0,.29.2,1.33,1.33,0,0,0,.45.08,1.27,1.27,0,0,0,.85-.29,1.12,1.12,0,0,0,.21-.19l0,.39h.57l.05-.31c.09-.4.22-.89.38-1.46a2.72,2.72,0,0,0,.15-.74.74.74,0,0,0-.06-.28C211.15,36.56,210.77,36.39,210.14,36.4Zm.41,1.81a1.36,1.36,0,0,1-.09.23,2.33,2.33,0,0,1-.35.58.9.9,0,0,1-.73.33c-.33,0-.5-.16-.5-.47,0-.49.37-.76,1.1-.81l.61,0Z"/><polygon class="cls-2" points="206.54 39.68 207.14 39.68 208.11 36.49 207.49 36.49 206.54 39.68"/><path class="cls-2" d="M200.84,36.44a2,2,0,0,0-.43,0,2.11,2.11,0,0,0-.77.14,1,1,0,0,0-.58.51.68.68,0,0,0,.33.92,3.22,3.22,0,0,0,.37.2l.48.24c.21.12.32.25.32.4a.49.49,0,0,1-.32.42,1,1,0,0,1-.54.12q-.6,0-.6-.39a1.67,1.67,0,0,1,0-.28h-.6l0,.13a.6.6,0,0,0,0,.2c0,.5.4.75,1.21.76a2.05,2.05,0,0,0,1-.22.91.91,0,0,0,.52-.84.63.63,0,0,0-.22-.5,2.46,2.46,0,0,0-.43-.28l-.37-.19-.27-.15q-.27-.17-.27-.36a.34.34,0,0,1,.25-.33,1,1,0,0,1,.43-.09c.37,0,.56.15.56.43v.11h.62l0-.18C201.51,36.77,201.29,36.53,200.84,36.44Z"/><path class="cls-2" d="M194.27,35.09l-.51,1.77a1.07,1.07,0,0,0-.95-.46,1.55,1.55,0,0,0-1.32.76,2.63,2.63,0,0,0-.46,1.51,1.17,1.17,0,0,0,.25.79,1,1,0,0,0,.75.31,1.82,1.82,0,0,0,1.05-.43l-.06.34h.54l1.33-4.59Zm-.8,2.85a3.76,3.76,0,0,1-.15.44,1.88,1.88,0,0,1-.43.69.86.86,0,0,1-.64.28c-.39,0-.59-.21-.59-.66a2.46,2.46,0,0,1,.32-1.17c.25-.47.56-.71.92-.71a.65.65,0,0,1,.46.17.62.62,0,0,1,.19.45A2.13,2.13,0,0,1,193.47,37.94Z"/><path class="cls-2" d="M181.33,36.4a1.48,1.48,0,0,0-1.08.35,1.15,1.15,0,0,0-.14.17.82.82,0,0,0-.09.19l-.06.18h.63l.06-.14a.55.55,0,0,1,.31-.27,1,1,0,0,1,.38-.07q.6,0,.6.39a1.73,1.73,0,0,1-.08.43l-.71,0a2.29,2.29,0,0,0-1.14.29,1.14,1.14,0,0,0-.58,1,.77.77,0,0,0,.21.57.79.79,0,0,0,.3.2,1.33,1.33,0,0,0,.45.08,1.29,1.29,0,0,0,.85-.29,1.12,1.12,0,0,0,.21-.19l0,.39H182l.06-.31c.09-.4.21-.89.38-1.46a2.72,2.72,0,0,0,.15-.74.74.74,0,0,0-.06-.28C182.34,36.56,182,36.39,181.33,36.4Zm.41,1.81c0,.07-.05.15-.09.23a2.33,2.33,0,0,1-.35.58.9.9,0,0,1-.73.33c-.34,0-.5-.16-.5-.47,0-.49.37-.76,1.09-.81l.62,0Z"/><path class="cls-2" d="M197.32,37.73l-.08.25a2.2,2.2,0,0,1-.13.34,1.61,1.61,0,0,1-.16.35,1.37,1.37,0,0,1-.66.61.69.69,0,0,1-.34.07.51.51,0,0,1-.37-.11.38.38,0,0,1-.14-.34,1.35,1.35,0,0,1,0-.33l.11-.36.49-1.72h-.6L195,38.2l-.1.37a1.7,1.7,0,0,0-.05.42.7.7,0,0,0,.66.75l.3,0a1.46,1.46,0,0,0,.91-.33l.24-.21-.1.45h.57l.06-.3.09-.33.09-.32.65-2.24h-.6Z"/><path class="cls-2" d="M190.13,36.55a1,1,0,0,0-.57-.15,1.65,1.65,0,0,0-.86.23,1.27,1.27,0,0,0-.21.15l-.15.15.08-.44h-.56l-.9,3.19h.62l.37-1.26c.32-1.07.77-1.61,1.37-1.61.33,0,.49.15.5.45a2,2,0,0,1-.1.55l-.55,1.87h.6l.56-1.86a1.94,1.94,0,0,0,.11-.63v-.14A.67.67,0,0,0,190.13,36.55Z"/><polygon class="cls-2" points="198.08 35.14 197.29 35.14 196.58 36.09 197.12 36.09 198.08 35.14"/><path class="cls-2" d="M203.79,35.68l-.64.17-.2.64h-.68l-.14.41h.71l-.53,1.61-.06.21-.07.28a1.39,1.39,0,0,0,0,.27c0,.33.22.49.64.5a1.87,1.87,0,0,0,.37,0l.16,0,.13-.41-.15,0a.86.86,0,0,1-.22,0c-.21,0-.31-.07-.3-.22a.67.67,0,0,1,0-.18l.06-.26.55-1.79h.67l.13-.41h-.67Z"/><polygon class="cls-2" points="208.36 35.73 208.54 35.09 207.84 35.09 207.65 35.73 208.36 35.73"/><path class="cls-2" d="M206.79,36.42l-.17,0a1.08,1.08,0,0,0-.6.18,1.87,1.87,0,0,0-.43.45l.1-.54h-.53l-.93,3.19h.62l.44-1.48a4.59,4.59,0,0,1,.17-.48,1.69,1.69,0,0,1,.13-.27,1,1,0,0,1,.16-.21.83.83,0,0,1,.62-.27h.25Z"/><polygon class="cls-2" points="186.54 35.1 185.19 39.68 185.84 39.68 187.2 35.1 186.54 35.1"/><polygon class="cls-2" points="135.05 14.11 134.95 13.02 134.94 13.02 134.7 13.46 134.35 14.11 134.7 14.11 135.05 14.11"/><path class="cls-2" d="M143.91,0H118.74V23.57h25.17Zm-3.36,20.16H122.14v-.62h18.41Zm-6.36-1.49-.11.51h-1.92l.07-.33.49-2.3h.73L133,18.67Zm-2-1.79,0,.18h-1.27l-.11.54H132l-.11.51H130.7l-.12.56h1.27l-.11.51h-2l0-.16.52-2.47h2Zm-2.45-.17-.52,2.47h-.73l.56-2.63h.72Zm10.77-.52H122.14v-.62h18.41Zm-14.2-1.51c.17,0,.41-.09.44-.26.08-.36-.48-.28-1-.53a.54.54,0,0,1-.26-.65,1.18,1.18,0,0,1,1.29-.79c.54,0,1,.2.88.83H127a.25.25,0,0,0,0-.24.33.33,0,0,0-.26-.08.38.38,0,0,0-.36.24c0,.19.18.26.36.31.41.11,1,.15.9.86a1.25,1.25,0,0,1-1.33.82c-.61,0-1.11-.18-1-.89H126C125.94,14.54,126.09,14.68,126.35,14.68Zm6.84-1.49-.41,1.94h-1l-.46-2h0l-.43,2h-.65l.07-.34.49-2.28h1l.47,2h0l.41-1.94h.66Zm1.45-.68h.89l.47,2.62h-.82l-.06-.51h-1.07l-.28.51h-.72l.14-.24Zm-4.35.34,0,.17H129l-.12.54H130l-.11.51h-1.17l-.11.55h1.27l-.11.51h-2l.56-2.62h2Zm6,2.28.56-2.62h.73L137,15.13Zm4.27-3.06H122.14v-.62h18.41Zm-12.48-1.48c.17,0,.4-.09.44-.26.07-.36-.48-.28-1-.53a.54.54,0,0,1-.26-.65,1.18,1.18,0,0,1,1.29-.79c.54,0,1.06.2.88.83h-.72a.25.25,0,0,0,0-.23.33.33,0,0,0-.26-.09.38.38,0,0,0-.37.24c0,.19.18.26.37.31.41.11,1,.15.89.86a1.25,1.25,0,0,1-1.32.82c-.62,0-1.12-.18-1-.9h.73C127.66,10.45,127.81,10.59,128.07,10.59Zm5.05,0c.17,0,.4-.09.44-.26.07-.36-.48-.28-1-.53a.54.54,0,0,1-.26-.65,1.18,1.18,0,0,1,1.29-.79c.54,0,1.06.2.88.83h-.73a.22.22,0,0,0,0-.23.33.33,0,0,0-.26-.09.38.38,0,0,0-.37.24c0,.19.18.26.36.31.42.11,1,.15.9.86a1.25,1.25,0,0,1-1.33.82c-.45,0-.84-.1-1-.43a1,1,0,0,1,0-.47h.73C132.7,10.45,132.86,10.59,133.12,10.59Zm-1.08-2-.07.34H130.7l-.11.54h1.17l-.11.51h-1.17l-.12.55h1.27l-.11.51h-2l.55-2.62h2ZM134.57,11l.55-2.62h.73L135.29,11Zm6-3H122.14V7.39h18.41ZM133.7,4.6,133.18,7h-1l-.46-2h0l-.42,2h-.66V7l.55-2.58h1l.46,2h0l.42-1.95h.65Zm.52-.19h.72L134.38,7h-.72l0-.19Zm-3.59.74s0,0,0,.08h-.77c0-.23-.11-.37-.41-.37s-.6.49-.68.89-.1.83.31.83a.54.54,0,0,0,.58-.39h.76c-.13.66-.81.9-1.45.9-.81,0-1.15-.49-1-1.37a1.53,1.53,0,0,1,1.55-1.37c.52,0,1,.15,1.08.57A.88.88,0,0,1,130.63,5.15Zm9.92-1.1H122.14V3.43h18.41Z"/><path class="cls-2" d="M147.34,0V3.43h4.95v.62h-4.95V7.39h4.95V8h-4.95v3.44h4.95v.62h-4.95v3.5h4.95v.62h-4.95v3.35h4.95v.62h-4.95v3.4h92.32V0Zm22.49,8.3h-4.66a1.46,1.46,0,0,0-.29-1.49,2.22,2.22,0,0,0-1.68-.54,2.38,2.38,0,0,0-2.32,1.54c-.26,1.23,1.14,1.63,2.3,2,2.67.72,6.7,1,5.74,5.54-.75,3.54-4.6,5.21-8.48,5.21s-7.12-1.14-6.22-5.7h4.66c-.36,1.58.62,2.44,2.29,2.44,1.08,0,2.56-.55,2.8-1.67.49-2.28-3.06-1.79-6.37-3.4-1.54-.74-2-2.28-1.67-4.09,1-4,4.76-5.08,8.27-5.08S171,4.25,169.83,8.3Zm14.26,5h-7.5l-.75,3.57H184l-.69,3.25h-12.8l3.57-16.8h12.8l-.47,2.21-.22,1H178l-.73,3.47h7.49Zm11.76,6.82-3-12.87h0l-2.73,12.87h-4.19l.47-2.21,3.1-14.59H196l3,12.52.06-.05,2.65-12.47h4.19L205,7.71,202.3,20.16Zm21.85,0-.42-3.28h-6.81l-1.8,3.28H204l.93-1.52,9.27-15.28h5.68L223,20.16Zm11.68,0h-4.65l3.57-16.8H233Zm10.28,0h-5v-.62h5Zm0-4h-5v-.62h5Zm0-4.12h-5v-.62h5Zm0-4.06h-5V7.39h5Zm0-4h-5V3.43h5Z"/><polygon class="cls-2" points="216.11 6.64 214.59 9.46 212.34 13.62 214.59 13.62 216.83 13.62 216.18 6.64 216.11 6.64"/><rect class="cls-2" x="147.33" y="11.45" height="0.62"/><rect class="cls-2" x="147.33" y="15.57" height="0.62"/><rect class="cls-2" x="147.33" y="19.54" height="0.62"/><rect class="cls-2" x="147.33" y="7.39" height="0.62"/><rect class="cls-2" x="147.33" y="3.43" height="0.62"/><rect class="cls-1" x="28.5" y="0.21" width="72.75" height="23.48"/><rect class="cls-1" y="0.21" width="25.09" height="23.49"/><polygon class="cls-2" points="16.15 13.18 16.14 13.18 15.56 14.27 16.25 14.27 16.15 13.18"/><path class="cls-2" d="M25.09.21H0V23.7H25.09ZM21.74,20.3H3.39v-.62H21.74ZM15.4,18.81l-.11.51H13.38l.55-2.62h.73l-.45,2.11Zm-2-1.6H12.14l-.11.54h1.16l-.1.51H11.92l-.12.55h1.27l-.11.51H11l.56-2.62h2Zm-2.93,2.11H9.76l.55-2.62H11Zm11.26-3H3.39v-.61H21.74ZM7.59,14.84c.17,0,.4-.09.44-.27.07-.35-.48-.27-1-.52a.53.53,0,0,1-.25-.64,1.17,1.17,0,0,1,1.28-.79c.54,0,1.06.19.88.82H8.21a.22.22,0,0,0,0-.23.37.37,0,0,0-.26-.08.35.35,0,0,0-.36.24c0,.19.17.25.35.3.42.11,1,.16.9.86a1.24,1.24,0,0,1-1.32.81c-.61,0-1.11-.17-1-.88h.72C7.18,14.7,7.33,14.84,7.59,14.84Zm6.4.45H13l-.46-2h0l-.43,2h-.65L12,12.67h1l.46,1.95h0l.42-1.94h.65Zm1.86-2.62h.88l.48,2.62h-.82l-.07-.51H15.26l-.28.51h-.72Zm-4.37.51H10.21l-.11.54h1.17l-.11.51H10l-.12.55h1.27l-.11.51H9l.56-2.62h2Zm6,2.11L18,12.67h.72l-.55,2.62Zm4.26-3H3.39v-.62H21.74ZM9.3,10.76c.17,0,.4-.09.44-.26.07-.36-.48-.28-1-.53a.54.54,0,0,1-.26-.64,1.19,1.19,0,0,1,1.29-.79c.54,0,1.05.2.88.83H9.92a.24.24,0,0,0,0-.24.37.37,0,0,0-.26-.08.38.38,0,0,0-.37.24c0,.19.18.25.36.3.42.12,1.05.16.9.87a1.24,1.24,0,0,1-1.32.81c-.61,0-1.11-.18-1-.89h.72C8.89,10.63,9,10.76,9.3,10.76Zm5,0c.17,0,.4-.09.44-.26.07-.36-.48-.28-1-.53a.52.52,0,0,1-.25-.64,1.17,1.17,0,0,1,1.28-.79c.54,0,1.06.2.88.83H15a.24.24,0,0,0,0-.24.37.37,0,0,0-.26-.08.36.36,0,0,0-.36.24c0,.19.17.25.35.3.42.12,1,.16.9.87a1.24,1.24,0,0,1-1.32.81c-.61,0-1.11-.18-1-.89H14C13.92,10.63,14.07,10.76,14.33,10.76ZM13.19,9.11H11.92l-.11.53H13l-.1.51H11.7l-.12.56h1.27l-.11.5h-2l.56-2.61h2Zm2.58,2.1.56-2.61h.72l-.55,2.61Zm6-3H3.39V7.57H21.74Zm-7.35-1h-1l-.46-2h0l-.42,2h-.66L12.4,4.6h1l.47,2h0L14.3,4.6H15Zm1-2.62h.72l-.56,2.62h-.72Zm-3.59.82h-.76c0-.23-.12-.37-.42-.37s-.59.49-.68.88-.09.83.32.83a.51.51,0,0,0,.57-.38h.77c-.13.66-.81.89-1.45.89-.81,0-1.15-.49-1-1.36a1.52,1.52,0,0,1,1.54-1.36C11.41,4.55,12,4.77,11.84,5.42Zm9.9-1.17H3.39V3.63H21.74Z"/><path class="cls-2" d="M96.31,4.25V3.63h4.94V.21H28.5V3.63h4.94v.62H28.5V7.57h4.94v.62H28.5v3.43h4.94v.62H28.5v3.49h4.94v.61H28.5v3.34h4.94v.62H28.5v3.39h72.75V20.3H96.31v-.62h4.94V16.34H96.31v-.61h4.94V12.24H96.31v-.62h4.94V8.19H96.31V7.57h4.94V4.25ZM51.62,8.77H46.77a1.55,1.55,0,0,0-.31-1.55,2.28,2.28,0,0,0-1.75-.56,2.5,2.5,0,0,0-2.43,1.6c-.27,1.29,1.2,1.7,2.41,2,2.78.75,7,1,6,5.78-.78,3.69-4.79,5.44-8.85,5.44s-7.42-1.2-6.48-5.95H40.2c-.38,1.65.64,2.55,2.39,2.55,1.12,0,2.68-.59,2.92-1.75C46,14,42.32,14.5,38.86,12.82c-1.61-.77-2.14-2.38-1.73-4.27,1.07-4.15,4.95-5.29,8.62-5.29S52.81,4.55,51.62,8.77Zm15.6,1.87L66.5,14H58.68l-.79,3.71h8.5l-.73,3.4H52.31L56,3.62H69.39L68.67,7h-8.5l-.77,3.62ZM85.34,8.77H80.48a1.53,1.53,0,0,0-.3-1.55,2.31,2.31,0,0,0-1.75-.56A2.5,2.5,0,0,0,76,8.26c-.27,1.29,1.19,1.7,2.41,2,2.78.75,7,1,6,5.78-.78,3.69-4.8,5.44-8.85,5.44s-7.42-1.2-6.48-5.95h4.85c-.37,1.65.65,2.55,2.4,2.55,1.12,0,2.67-.59,2.92-1.75.5-2.38-3.2-1.87-6.65-3.55-1.61-.77-2.14-2.38-1.74-4.27,1.08-4.15,5-5.29,8.63-5.29S86.52,4.55,85.34,8.77Zm5.5,12.38H86L89.71,3.62h4.85Z"/><rect class="cls-2" x="28.5" y="11.62" height="0.62"/><rect class="cls-2" x="28.5" y="3.63" height="0.62"/><rect class="cls-2" x="28.5" y="7.57" height="0.62"/><rect class="cls-2" x="28.5" y="15.73" height="0.62"/><rect class="cls-2" x="28.5" y="19.68" height="0.62"/><rect class="cls-2" x="101.25" y="15.73" height="0.62"/><rect class="cls-2" x="101.25" y="3.63" height="0.62"/><rect class="cls-2" x="101.25" y="7.57" height="0.62"/><rect class="cls-2" x="101.25" y="11.62" height="0.62"/><rect class="cls-2" x="101.25" y="19.68" height="0.62"/><path class="cls-2" d="M25.32,36.5a1.48,1.48,0,0,0-1.08.35.7.7,0,0,0-.13.17.87.87,0,0,0-.1.19l-.06.18h.64l.05-.14A.55.55,0,0,1,25,37a1,1,0,0,1,.38-.07q.6,0,.6.39a1.59,1.59,0,0,1-.08.42l-.71,0A2.56,2.56,0,0,0,24,38a1.12,1.12,0,0,0-.57,1,.8.8,0,0,0,.21.57.81.81,0,0,0,.29.19,1.39,1.39,0,0,0,1.3-.2,1.83,1.83,0,0,0,.21-.2l-.05.39H26l.06-.3c.08-.41.21-.9.38-1.47a2.89,2.89,0,0,0,.14-.74.74.74,0,0,0-.06-.27C26.33,36.66,25.94,36.5,25.32,36.5Zm.41,1.8a1.57,1.57,0,0,1-.09.23,2.33,2.33,0,0,1-.35.58.94.94,0,0,1-.73.34c-.33,0-.5-.17-.5-.48,0-.48.37-.75,1.1-.81l.61,0Z"/><polygon class="cls-2" points="23 35.2 21.88 39.07 20.74 35.2 19.96 35.2 18.61 39.77 19.22 39.77 20.37 35.93 21.48 39.77 22.25 39.77 23.6 35.2 23 35.2"/><path class="cls-2" d="M15.51,28.34a1.52,1.52,0,0,0-1.09.35.76.76,0,0,0-.13.17,1.74,1.74,0,0,0-.1.19l0,.18h.63l.06-.14a.58.58,0,0,1,.3-.28,1.23,1.23,0,0,1,.39-.06c.39,0,.59.13.59.39a1.52,1.52,0,0,1-.07.42l-.71,0a2.57,2.57,0,0,0-1.15.29,1.15,1.15,0,0,0-.57,1,.77.77,0,0,0,.21.57.69.69,0,0,0,.3.2,1.33,1.33,0,0,0,.45.08,1.26,1.26,0,0,0,.84-.29,1.52,1.52,0,0,0,.22-.19l-.06.39h.57l.05-.3c.09-.41.22-.9.38-1.47a2.66,2.66,0,0,0,.15-.74.66.66,0,0,0-.06-.27C16.51,28.5,16.13,28.33,15.51,28.34Zm.4,1.8a1.09,1.09,0,0,1-.09.23,2.69,2.69,0,0,1-.34.58,1,1,0,0,1-.73.34c-.34,0-.5-.17-.5-.48,0-.48.37-.75,1.09-.81L16,30Z"/><path class="cls-2" d="M18.78,31.23l-.15,0-.22,0c-.2,0-.3-.08-.3-.23a.67.67,0,0,1,0-.18l.07-.26.54-1.78h.67l.13-.41h-.67l.25-.81-.65.17-.19.64h-.68l-.14.41h.7l-.52,1.61-.06.2-.07.28a1.39,1.39,0,0,0,0,.27c0,.33.22.49.63.5a1.8,1.8,0,0,0,.37,0l.16,0Z"/><polygon class="cls-2" points="2.53 27.04 1.19 31.61 1.84 31.61 3.19 27.04 2.53 27.04"/><polygon class="cls-2" points="13.73 27.67 13.91 27.04 13.21 27.04 13.02 27.67 13.73 27.67"/><polygon class="cls-2" points="19.53 31.61 20.13 31.61 21.09 28.43 20.47 28.43 19.53 31.61"/><polygon class="cls-2" points="21.52 27.04 20.82 27.04 20.64 27.67 21.34 27.67 21.52 27.04"/><polygon class="cls-2" points="22.32 28.43 21.68 28.43 22.25 31.61 22.85 31.61 24.91 28.43 24.24 28.43 22.68 31.03 22.32 28.43"/><polygon class="cls-2" points="11.91 31.61 12.51 31.61 13.48 28.43 12.86 28.43 11.91 31.61"/><path class="cls-2" d="M6.12,28.49a1,1,0,0,0-.57-.15,1.56,1.56,0,0,0-.86.23l-.21.15-.15.14.08-.43H3.86L3,31.61h.61l.37-1.26c.32-1.06.77-1.6,1.37-1.6.32,0,.49.15.5.45a2.87,2.87,0,0,1-.1.54l-.55,1.87h.6l.56-1.86a2.2,2.2,0,0,0,.11-.62V29A.73.73,0,0,0,6.12,28.49Z"/><path class="cls-2" d="M11.18,28.45a1.59,1.59,0,0,0-.62-.11,1.89,1.89,0,0,0-.6.09,1.55,1.55,0,0,0-.66.42,2,2,0,0,0-.5.83,2.68,2.68,0,0,0-.19,1,1,1,0,0,0,.33.79,1.18,1.18,0,0,0,.82.27,2.15,2.15,0,0,0,.89-.18,1.36,1.36,0,0,0,.67-.76l0-.12h-.63a1.11,1.11,0,0,1-.32.47.83.83,0,0,1-.53.18.73.73,0,0,1-.3-.06.48.48,0,0,1-.32-.54,1.6,1.6,0,0,1,.06-.51,2.74,2.74,0,0,1,.16-.53c.24-.6.59-.9,1-.9a.92.92,0,0,1,.28.05.36.36,0,0,1,.25.37,1.39,1.39,0,0,1,0,.27h.62l0-.11a.81.81,0,0,0,0-.16A.7.7,0,0,0,11.18,28.45Z"/><polygon class="cls-2" points="8.05 27.04 7.87 27.67 8.57 27.67 8.75 27.04 8.05 27.04"/><polygon class="cls-2" points="6.76 31.61 7.36 31.61 8.32 28.43 7.7 28.43 6.76 31.61"/><path class="cls-2" d="M27.44,31.61l0-.3c.09-.41.21-.9.38-1.47A2.66,2.66,0,0,0,28,29.1a.66.66,0,0,0-.06-.27c-.15-.33-.53-.5-1.16-.49a1.48,1.48,0,0,0-1.08.35.76.76,0,0,0-.13.17,1.74,1.74,0,0,0-.1.19l-.06.18h.64l.06-.14a.55.55,0,0,1,.3-.28,1.23,1.23,0,0,1,.39-.06c.39,0,.59.13.59.39a1.59,1.59,0,0,1-.08.42l-.7,0a2.57,2.57,0,0,0-1.15.29,1.15,1.15,0,0,0-.57,1,.77.77,0,0,0,.21.57.72.72,0,0,0,.29.2,1.39,1.39,0,0,0,.46.08,1.26,1.26,0,0,0,.84-.29,1.12,1.12,0,0,0,.21-.19l-.05.39ZM26.77,31a.92.92,0,0,1-.72.34c-.34,0-.51-.17-.5-.48,0-.48.37-.75,1.09-.81l.61,0,0,.17a1.09,1.09,0,0,1-.09.23A2.33,2.33,0,0,1,26.77,31Z"/><path class="cls-2" d="M75.42,31.28a1.42,1.42,0,0,0,.18-.22l.11-.18.08-.16h-.63a2,2,0,0,1-.22.31.8.8,0,0,1-.63.26.63.63,0,0,1-.46-.17.59.59,0,0,1-.18-.46,1.49,1.49,0,0,1,.09-.53H76L76,30l0-.22a2,2,0,0,0,0-.42.9.9,0,0,0-.23-.64.83.83,0,0,0-.33-.22,1.62,1.62,0,0,0-.58-.11,2,2,0,0,0-.72.14,1.4,1.4,0,0,0-.49.33,2.63,2.63,0,0,0-.53.86,2.6,2.6,0,0,0-.2,1,1.2,1.2,0,0,0,.09.45c.14.39.51.59,1.09.6A1.66,1.66,0,0,0,75.42,31.28ZM74,29.37a.93.93,0,0,1,.89-.62c.37,0,.55.18.56.51,0,.09,0,.18,0,.28l0,.18H73.88Z"/><path class="cls-2" d="M79.83,27l-.51,1.77a1.06,1.06,0,0,0-.94-.46,1.55,1.55,0,0,0-1.33.76,2.7,2.7,0,0,0-.45,1.51,1.11,1.11,0,0,0,.25.78,1,1,0,0,0,.75.31,1.82,1.82,0,0,0,1-.42l-.06.33h.55L80.44,27ZM79,29.88a4.56,4.56,0,0,1-.14.44,2.07,2.07,0,0,1-.43.68.89.89,0,0,1-.65.29c-.39,0-.58-.22-.58-.67a2.43,2.43,0,0,1,.31-1.16c.26-.47.56-.71.92-.71a.61.61,0,0,1,.46.17.62.62,0,0,1,.19.45A2.2,2.2,0,0,1,79,29.88Z"/><path class="cls-2" d="M82.92,28.45a1.62,1.62,0,0,0-.58-.11,2,2,0,0,0-.72.14,1.4,1.4,0,0,0-.49.33,2.47,2.47,0,0,0-.53.86,2.42,2.42,0,0,0-.2,1,1.2,1.2,0,0,0,.09.45c.14.39.5.59,1.09.6a1.66,1.66,0,0,0,1.21-.42,1,1,0,0,0,.17-.22l.12-.18.08-.16h-.64a2,2,0,0,1-.21.31.8.8,0,0,1-.63.26.61.61,0,0,1-.46-.17.59.59,0,0,1-.19-.46,1.83,1.83,0,0,1,.1-.53h2.2l.06-.18,0-.22a3,3,0,0,0,0-.42.9.9,0,0,0-.23-.64A.83.83,0,0,0,82.92,28.45Zm-.11,1.09-.06.18h-1.5l.15-.35a.92.92,0,0,1,.88-.62c.38,0,.56.18.56.51A1.41,1.41,0,0,1,82.81,29.54Z"/><path class="cls-2" d="M64.19,31.7a1.71,1.71,0,0,0,1.27-.49,1.9,1.9,0,0,0,.26-.34,3.06,3.06,0,0,0,.39-.9,2.13,2.13,0,0,0,.07-.55,1,1,0,0,0-.38-.84,1.34,1.34,0,0,0-.9-.24h-.27a1.72,1.72,0,0,0-1.26.86,2.25,2.25,0,0,0-.19.38,2.55,2.55,0,0,0-.21,1,1,1,0,0,0,.34.83A1.36,1.36,0,0,0,64.19,31.7Zm-.53-1.56a2.29,2.29,0,0,1,.41-.91,1,1,0,0,1,.85-.48.59.59,0,0,1,.63.63,2.82,2.82,0,0,1-.23.95,3.59,3.59,0,0,1-.17.34,1,1,0,0,1-.91.62.57.57,0,0,1-.64-.65A2.58,2.58,0,0,1,63.66,30.14Z"/><path class="cls-2" d="M29.71,36.61a1.8,1.8,0,0,0-.62-.11,1.89,1.89,0,0,0-.6.09,1.68,1.68,0,0,0-.66.42,2.12,2.12,0,0,0-.5.83,2.89,2.89,0,0,0-.18,1,1,1,0,0,0,.32.79,1.19,1.19,0,0,0,.82.27,2.15,2.15,0,0,0,.89-.18,1.36,1.36,0,0,0,.67-.76l0-.11h-.64a1.26,1.26,0,0,1-.32.47.88.88,0,0,1-.53.17.68.68,0,0,1-.29-.06c-.23-.07-.33-.25-.33-.54a2.5,2.5,0,0,1,.06-.51,3,3,0,0,1,.17-.53c.24-.6.58-.9,1-.9a.87.87,0,0,1,.28.05.36.36,0,0,1,.25.37,1.39,1.39,0,0,1,0,.27h.62l0-.11a.78.78,0,0,0,0-.16A.71.71,0,0,0,29.71,36.61Z"/><path class="cls-2" d="M73.3,27l-.48,0h-.16a1,1,0,0,0-.65.28,1.66,1.66,0,0,0-.31.63l-.15.52h-.62l-.1.41h.6l-.81,2.77h.61L72,28.84h.73l.11-.41h-.72l.16-.55a.6.6,0,0,1,.65-.47h.21Z"/><path class="cls-2" d="M70,29a.69.69,0,0,0-.29-.5,1,1,0,0,0-.57-.15,1.54,1.54,0,0,0-.86.23,1.39,1.39,0,0,0-.22.15l-.15.14.09-.43h-.56l-.89,3.18h.61l.37-1.26c.31-1.06.77-1.6,1.37-1.6.32,0,.49.15.49.45a1.83,1.83,0,0,1-.1.54l-.54,1.87h.6l.56-1.86a2.15,2.15,0,0,0,.1-.62Z"/><polygon class="cls-2" points="90.04 32.83 90.73 32.83 91.28 32 90.73 32 90.04 32.83"/><path class="cls-2" d="M96.28,27.3a.23.23,0,0,1-.22.16.2.2,0,0,1-.11,0l-.45-.22a.48.48,0,0,0-.3-.06.55.55,0,0,0-.55.43q0,.15-.09.33H95l0-.1c0-.13.12-.19.22-.19a.53.53,0,0,1,.16,0l.42.2a.6.6,0,0,0,.3.07c.3,0,.51-.21.62-.65l0-.11h-.41Z"/><path class="cls-2" d="M95.16,28.34a1.48,1.48,0,0,0-1.08.35.76.76,0,0,0-.13.17,1.74,1.74,0,0,0-.1.19l-.06.18h.64l.06-.14a.52.52,0,0,1,.3-.28,1.23,1.23,0,0,1,.39-.06c.39,0,.59.13.59.39a1.59,1.59,0,0,1-.08.42l-.71,0a2.56,2.56,0,0,0-1.14.29,1.11,1.11,0,0,0-.57,1,.77.77,0,0,0,.21.57.72.72,0,0,0,.29.2,1.33,1.33,0,0,0,.45.08,1.27,1.27,0,0,0,.85-.29,1.12,1.12,0,0,0,.21-.19l0,.39h.56l.06-.3c.09-.41.21-.9.38-1.47a3.08,3.08,0,0,0,.15-.74.54.54,0,0,0-.07-.27C96.17,28.5,95.79,28.33,95.16,28.34Zm.41,1.8a1.09,1.09,0,0,1-.09.23,2.33,2.33,0,0,1-.35.58.94.94,0,0,1-.73.34c-.33,0-.5-.17-.49-.48,0-.48.37-.75,1.09-.81l.61,0Z"/><path class="cls-2" d="M99.82,28.58a1.34,1.34,0,0,0-.9-.24h-.27a1.7,1.7,0,0,0-1.26.86,2.25,2.25,0,0,0-.19.38,2.57,2.57,0,0,0-.22,1,1,1,0,0,0,.35.83,1.36,1.36,0,0,0,.88.26,1.69,1.69,0,0,0,1.26-.49,1.56,1.56,0,0,0,.27-.34,3.05,3.05,0,0,0,.38-.9,2.15,2.15,0,0,0,.08-.55A1,1,0,0,0,99.82,28.58Zm-.48,1.75a3.59,3.59,0,0,1-.17.34,1,1,0,0,1-.91.62.57.57,0,0,1-.64-.65,2,2,0,0,1,.06-.5,2.29,2.29,0,0,1,.41-.91,1,1,0,0,1,.84-.48.63.63,0,0,1,.46.16.61.61,0,0,1,.17.47A2.56,2.56,0,0,1,99.34,30.33Z"/><path class="cls-2" d="M88,28.34a1.48,1.48,0,0,0-1.08.35.79.79,0,0,0-.14.17.82.82,0,0,0-.09.19l-.06.18h.64l0-.14a.57.57,0,0,1,.31-.28,1.21,1.21,0,0,1,.38-.06q.6,0,.6.39a1.59,1.59,0,0,1-.08.42l-.71,0a2.56,2.56,0,0,0-1.14.29,1.11,1.11,0,0,0-.57,1,.77.77,0,0,0,.21.57.72.72,0,0,0,.29.2,1.33,1.33,0,0,0,.45.08,1.27,1.27,0,0,0,.85-.29,1.12,1.12,0,0,0,.21-.19l0,.39h.56l.06-.3c.08-.41.21-.9.38-1.47a3,3,0,0,0,.14-.74.66.66,0,0,0-.06-.27C89.05,28.5,88.66,28.33,88,28.34Zm.41,1.8-.09.23A2.33,2.33,0,0,1,88,31a.94.94,0,0,1-.73.34c-.33,0-.5-.17-.5-.48,0-.48.37-.75,1.1-.81l.61,0Z"/><path class="cls-2" d="M61.5,30.53a1,1,0,0,1-.45.52,1.46,1.46,0,0,1-1.35,0,.89.89,0,0,1-.42-.57,1.38,1.38,0,0,1,0-.36,2.63,2.63,0,0,1,.07-.67,4.11,4.11,0,0,1,.21-.68,2.5,2.5,0,0,1,.37-.64,1.77,1.77,0,0,1,.41-.41,1.08,1.08,0,0,1,.43-.21,2.13,2.13,0,0,1,.44-.07c.58,0,.87.26.89.77v.13h.65v-.18a1.16,1.16,0,0,0-.1-.49c-.18-.48-.64-.71-1.35-.71a2.44,2.44,0,0,0-2.38,1.67,3.49,3.49,0,0,0-.21.67,3.59,3.59,0,0,0-.11.84,1.47,1.47,0,0,0,.49,1.19,2,2,0,0,0,1.25.38,2.37,2.37,0,0,0,.88-.16,1.44,1.44,0,0,0,.54-.35,2.14,2.14,0,0,0,.25-.34,2.35,2.35,0,0,0,.18-.35l0-.12h-.66Z"/><path class="cls-2" d="M92.43,28.45a1.59,1.59,0,0,0-.62-.11,1.89,1.89,0,0,0-.6.09,1.62,1.62,0,0,0-.66.42,2,2,0,0,0-.5.83,2.89,2.89,0,0,0-.18,1,1,1,0,0,0,.32.79,1.19,1.19,0,0,0,.82.27,2.15,2.15,0,0,0,.89-.18,1.36,1.36,0,0,0,.67-.76l0-.12H92a1.11,1.11,0,0,1-.32.47.83.83,0,0,1-.53.18.68.68,0,0,1-.29-.06c-.23-.07-.33-.25-.33-.54a2.5,2.5,0,0,1,.06-.51,2.74,2.74,0,0,1,.17-.53c.24-.6.58-.9,1-.9a.87.87,0,0,1,.28.05.36.36,0,0,1,.25.37,1.39,1.39,0,0,1,0,.27h.62l0-.11a.78.78,0,0,0,0-.16A.72.72,0,0,0,92.43,28.45Z"/><path class="cls-2" d="M86.13,28.34a1.06,1.06,0,0,0-.6.18,2.07,2.07,0,0,0-.44.45l.11-.54h-.53l-.93,3.18h.62l.44-1.48a4.59,4.59,0,0,1,.17-.48,2.1,2.1,0,0,1,.13-.26.78.78,0,0,1,.16-.21.8.8,0,0,1,.61-.28l.25,0,.18-.56Z"/><path class="cls-2" d="M50.5,35.2,50,37a1.05,1.05,0,0,0-.94-.46,1.55,1.55,0,0,0-1.33.76,2.7,2.7,0,0,0-.45,1.51,1.14,1.14,0,0,0,.25.78,1,1,0,0,0,.75.31,1.82,1.82,0,0,0,1-.42l-.06.33h.55l1.31-4.57ZM49.7,38a4.56,4.56,0,0,1-.14.44,2.07,2.07,0,0,1-.43.68.89.89,0,0,1-.65.29c-.39,0-.58-.22-.58-.66a2.44,2.44,0,0,1,.31-1.17c.26-.47.56-.71.93-.71a.6.6,0,0,1,.45.17.62.62,0,0,1,.19.45A2.2,2.2,0,0,1,49.7,38Z"/><path class="cls-2" d="M39,36.65a1,1,0,0,0-.57-.15,1.62,1.62,0,0,0-.86.23,1,1,0,0,0-.21.15l-.15.15.08-.44h-.56l-.89,3.18h.61l.37-1.26c.32-1.06.77-1.6,1.37-1.6.32,0,.49.15.5.45a3.1,3.1,0,0,1-.1.55l-.55,1.86h.6l.56-1.85a2.27,2.27,0,0,0,.1-.63v-.14A.69.69,0,0,0,39,36.65Z"/><polygon class="cls-2" points="48.51 31.61 49.87 27.04 49.26 27.04 48.15 30.91 47 27.04 46.23 27.04 44.88 31.61 45.49 31.61 46.64 27.77 47.75 31.61 48.51 31.61"/><polygon class="cls-2" points="51.67 27.04 51.02 27.04 49.67 31.61 50.32 31.61 51.67 27.04"/><polygon class="cls-2" points="43.22 39.77 43.84 39.77 45.18 35.2 44.57 35.2 43.22 39.77"/><path class="cls-2" d="M41.65,36.5a1.48,1.48,0,0,0-1.08.35,1.09,1.09,0,0,0-.13.17.87.87,0,0,0-.1.19l-.06.18h.64l.06-.14a.5.5,0,0,1,.3-.27,1,1,0,0,1,.38-.07q.6,0,.6.39a1.59,1.59,0,0,1-.08.42l-.71,0a2.56,2.56,0,0,0-1.14.29,1.12,1.12,0,0,0-.57,1,.8.8,0,0,0,.21.57.81.81,0,0,0,.29.19,1.39,1.39,0,0,0,1.3-.2,1.83,1.83,0,0,0,.21-.2l-.05.39h.56l.06-.3c.09-.41.21-.9.38-1.47a3.55,3.55,0,0,0,.15-.74A.77.77,0,0,0,42.8,37C42.66,36.66,42.28,36.5,41.65,36.5Zm.41,1.8a1.57,1.57,0,0,1-.09.23,2.33,2.33,0,0,1-.35.58.94.94,0,0,1-.73.34c-.33,0-.5-.17-.49-.48,0-.48.37-.75,1.09-.81l.61,0Z"/><path class="cls-2" d="M44.81,28.33v-.18a1.33,1.33,0,0,0-.09-.49c-.19-.48-.64-.71-1.36-.71A2.44,2.44,0,0,0,41,28.62a3.49,3.49,0,0,0-.21.67,3.11,3.11,0,0,0-.1.84,1.46,1.46,0,0,0,.48,1.19,2,2,0,0,0,1.26.38,2.28,2.28,0,0,0,.87-.16,1.44,1.44,0,0,0,.54-.35,2.14,2.14,0,0,0,.25-.34,2.35,2.35,0,0,0,.18-.35l0-.12h-.66l0,.15a1,1,0,0,1-.45.52,1.33,1.33,0,0,1-.67.16,1.34,1.34,0,0,1-.68-.17.87.87,0,0,1-.41-.57,1.37,1.37,0,0,1,0-.36,3.18,3.18,0,0,1,.07-.67,4.11,4.11,0,0,1,.21-.68,2.83,2.83,0,0,1,.37-.64,2,2,0,0,1,.41-.41,1.28,1.28,0,0,1,.44-.21,1.93,1.93,0,0,1,.43-.07c.58,0,.87.26.89.77v.13Z"/><path class="cls-2" d="M33.54,28.8a1.05,1.05,0,0,0-.94-.46,1.55,1.55,0,0,0-1.32.76,2.71,2.71,0,0,0-.46,1.51,1.16,1.16,0,0,0,.25.78,1,1,0,0,0,.75.31,1.87,1.87,0,0,0,1-.42l-.06.33h.54L34.67,27h-.61Zm-.28,1.08c0,.16-.1.3-.15.44a1.92,1.92,0,0,1-.43.68.85.85,0,0,1-.64.29c-.39,0-.58-.22-.58-.67a2.43,2.43,0,0,1,.31-1.16c.25-.47.56-.71.92-.71a.61.61,0,0,1,.46.17.62.62,0,0,1,.19.45A2.2,2.2,0,0,1,33.26,29.88Z"/><polygon class="cls-2" points="53.89 30.11 55.48 30.11 55.61 29.67 54.02 29.67 53.89 30.11"/><polygon class="cls-2" points="30.45 39.77 31.05 39.77 32.01 36.59 31.39 36.59 30.45 39.77"/><path class="cls-2" d="M36.19,29.58a2.56,2.56,0,0,0-1.14.29,1.11,1.11,0,0,0-.57,1,.77.77,0,0,0,.21.57.72.72,0,0,0,.29.2,1.33,1.33,0,0,0,.45.08,1.27,1.27,0,0,0,.85-.29,1.12,1.12,0,0,0,.21-.19l-.05.39H37l.06-.3c.09-.41.21-.9.38-1.47a3.08,3.08,0,0,0,.15-.74.54.54,0,0,0-.07-.27c-.14-.33-.52-.5-1.15-.49a1.48,1.48,0,0,0-1.08.35.76.76,0,0,0-.13.17.87.87,0,0,0-.1.19l-.06.18h.64l.06-.14a.52.52,0,0,1,.3-.28,1.23,1.23,0,0,1,.39-.06c.39,0,.59.13.59.39a1.59,1.59,0,0,1-.08.42Zm.59.56a1.09,1.09,0,0,1-.09.23,2.33,2.33,0,0,1-.35.58.94.94,0,0,1-.73.34c-.33,0-.5-.17-.49-.48,0-.48.37-.75,1.09-.81l.61,0Z"/><polygon class="cls-2" points="31.74 35.2 31.55 35.83 32.26 35.83 32.44 35.2 31.74 35.2"/><path class="cls-2" d="M35.14,36.74a1.51,1.51,0,0,0-.91-.24H34a1.73,1.73,0,0,0-1.26.86,2.69,2.69,0,0,0-.19.38,2.55,2.55,0,0,0-.21,1,1,1,0,0,0,.34.83,1.36,1.36,0,0,0,.88.26,1.71,1.71,0,0,0,1.27-.49,2.52,2.52,0,0,0,.27-.34,3.41,3.41,0,0,0,.38-.89,2.26,2.26,0,0,0,.07-.56A1,1,0,0,0,35.14,36.74Zm-.49,1.75a2.16,2.16,0,0,1-.17.34,1,1,0,0,1-.91.62.57.57,0,0,1-.64-.65,2.11,2.11,0,0,1,.07-.5,2.28,2.28,0,0,1,.4-.91,1,1,0,0,1,.85-.48.57.57,0,0,1,.63.63A2.77,2.77,0,0,1,34.65,38.49Z"/><path class="cls-2" d="M81.54,36.5a1.48,1.48,0,0,0-1.08.35,1.09,1.09,0,0,0-.13.17.87.87,0,0,0-.1.19l-.06.18h.64l0-.14a.55.55,0,0,1,.31-.27,1,1,0,0,1,.38-.07q.6,0,.6.39a1.59,1.59,0,0,1-.08.42l-.71,0a2.56,2.56,0,0,0-1.14.29,1.12,1.12,0,0,0-.57,1,.8.8,0,0,0,.21.57.81.81,0,0,0,.29.19,1.39,1.39,0,0,0,1.3-.2,1.83,1.83,0,0,0,.21-.2l0,.39h.56l.06-.3c.09-.41.21-.9.38-1.47a3.55,3.55,0,0,0,.15-.74.77.77,0,0,0-.07-.27C82.55,36.66,82.17,36.5,81.54,36.5ZM82,38.3a1.57,1.57,0,0,1-.09.23,2.33,2.33,0,0,1-.35.58.94.94,0,0,1-.73.34c-.33,0-.5-.17-.5-.48,0-.48.37-.75,1.1-.81l.61,0Z"/><polygon class="cls-2" points="77.95 39.77 78.55 39.77 79.51 36.59 78.89 36.59 77.95 39.77"/><path class="cls-2" d="M72.27,36.54a2,2,0,0,0-.43,0,2.11,2.11,0,0,0-.77.14,1,1,0,0,0-.57.51.6.6,0,0,0-.07.32.68.68,0,0,0,.39.59c.12.08.24.14.37.21l.47.24c.22.11.33.25.33.4s-.11.31-.33.42a1.12,1.12,0,0,1-.53.12q-.6,0-.6-.39a1.78,1.78,0,0,1,0-.29H70l0,.13a.64.64,0,0,0,0,.2c0,.5.4.76,1.21.76a2.05,2.05,0,0,0,1-.22.9.9,0,0,0,.52-.83.61.61,0,0,0-.22-.5A2,2,0,0,0,72,38l-.37-.19-.27-.15q-.27-.16-.27-.36a.34.34,0,0,1,.25-.33,1,1,0,0,1,.43-.09c.37,0,.55.15.56.43v.11h.62v-.18A.7.7,0,0,0,72.27,36.54Z"/><path class="cls-2" d="M65.72,35.2,65.2,37a1,1,0,0,0-.94-.46,1.55,1.55,0,0,0-1.32.76,2.7,2.7,0,0,0-.45,1.51,1.14,1.14,0,0,0,.24.78,1,1,0,0,0,.75.31,1.84,1.84,0,0,0,1.05-.42l-.06.33H65l1.32-4.57ZM64.92,38a4.53,4.53,0,0,1-.15.44,2,2,0,0,1-.42.68.89.89,0,0,1-.65.29c-.39,0-.58-.22-.58-.66a2.44,2.44,0,0,1,.31-1.17c.25-.47.56-.71.92-.71a.61.61,0,0,1,.46.17.62.62,0,0,1,.19.45A2.2,2.2,0,0,1,64.92,38Z"/><path class="cls-2" d="M52.82,36.5a1.48,1.48,0,0,0-1.08.35,1.15,1.15,0,0,0-.14.17.82.82,0,0,0-.09.19l-.06.18h.63l.06-.14a.56.56,0,0,1,.3-.27,1,1,0,0,1,.39-.07c.39,0,.59.14.59.39a1.52,1.52,0,0,1-.07.42l-.71,0A2.49,2.49,0,0,0,51.5,38a1.12,1.12,0,0,0-.57,1,.72.72,0,0,0,.21.57.67.67,0,0,0,.29.19,1.33,1.33,0,0,0,.45.08,1.36,1.36,0,0,0,.85-.28l.21-.2-.06.39h.57l.06-.3c.08-.41.21-.9.37-1.47a2.59,2.59,0,0,0,.15-.74A.74.74,0,0,0,54,37C53.82,36.66,53.44,36.5,52.82,36.5Zm.4,1.8a.92.92,0,0,1-.09.23,2.33,2.33,0,0,1-.34.58,1,1,0,0,1-.73.34c-.34,0-.5-.17-.5-.48,0-.48.37-.75,1.09-.81l.61,0Z"/><path class="cls-2" d="M68.75,37.83l-.07.25a2.2,2.2,0,0,1-.13.34,2.68,2.68,0,0,1-.16.34,1.4,1.4,0,0,1-.66.62,1,1,0,0,1-.34.07.52.52,0,0,1-.36-.12.39.39,0,0,1-.15-.34,1,1,0,0,1,.05-.33l.1-.36.49-1.71h-.6l-.51,1.71-.1.37a2.17,2.17,0,0,0,0,.41.7.7,0,0,0,.66.75,1.53,1.53,0,0,0,.3,0,1.46,1.46,0,0,0,.91-.33l.24-.2-.1.44h.57l.06-.3.09-.33.09-.32.65-2.23h-.61Z"/><path class="cls-2" d="M61.59,36.65A1,1,0,0,0,61,36.5a1.66,1.66,0,0,0-.87.23l-.21.15L59.8,37l.09-.44h-.56l-.9,3.18h.62l.36-1.26c.32-1.06.78-1.6,1.37-1.6.33,0,.49.15.5.45a2,2,0,0,1-.1.55l-.55,1.86h.6l.56-1.85a2.32,2.32,0,0,0,.11-.63v-.14A.73.73,0,0,0,61.59,36.65Z"/><polygon class="cls-2" points="69.52 35.25 68.73 35.25 68.02 36.19 68.56 36.19 69.52 35.25"/><path class="cls-2" d="M75.21,35.78l-.64.18-.19.63h-.69l-.13.41h.7l-.52,1.61-.06.21-.07.27a.66.66,0,0,0,0,.27c0,.33.21.5.63.5l.37,0,.16,0,.13-.41-.15,0-.22,0c-.21,0-.31-.08-.3-.23a.74.74,0,0,1,0-.18l.06-.25L74.84,37h.67l.13-.41H75Z"/><polygon class="cls-2" points="79.76 35.83 79.94 35.2 79.25 35.2 79.06 35.83 79.76 35.83"/><path class="cls-2" d="M78.2,36.52l-.17,0a1,1,0,0,0-.59.18,1.7,1.7,0,0,0-.44.45l.11-.54h-.53l-.93,3.18h.61l.44-1.48c0-.15.11-.32.17-.47s.09-.19.13-.27a1,1,0,0,1,.16-.21.85.85,0,0,1,.62-.28l.25,0Z"/><polygon class="cls-2" points="58.01 35.2 56.66 39.77 57.31 39.77 58.66 35.2 58.01 35.2"/></g></g></svg>