<!-- <?xml version="1.0" encoding="utf-8"?> -->
<!-- Generator: Adobe Illustrator 22.1.0, SVG Export Plug-In . SVG Version: 6.00 Build 0)  -->
<svg version="1.1" id="Layer_1" xmlns="http://www.w3.org/2000/svg" xmlns:xlink="http://www.w3.org/1999/xlink" x="0px" y="0px"
	 viewBox="0 0 297.6 206.1" style="enable-background:new 0 0 297.6 206.1;" xml:space="preserve">
<style type="text/css">
	.st0{clip-path:url(#SVGID_2_);}
	.st1{fill:#d66b30;}
	.st2{fill:#fff;}
	.st3{fill:#81B952;}
	.st4{clip-path:url(#SVGID_4_);}
	.st5{fill:url(#SVGID_5_);}
	.st6{clip-path:url(#SVGID_7_);}
	.st7{fill:url(#SVGID_8_);}
	.st8{clip-path:url(#SVGID_10_);}
	.st9{fill:url(#SVGID_11_);}
	.st10{clip-path:url(#SVGID_13_);}
	.st11{fill:url(#SVGID_14_);}
	.st12{clip-path:url(#SVGID_16_);}
	.st13{fill:url(#SVGID_17_);}
	.st14{clip-path:url(#SVGID_19_);}
	.st15{fill:url(#SVGID_20_);}
	.st16{clip-path:url(#SVGID_22_);}
	.st17{fill:url(#SVGID_23_);}
	.st18{clip-path:url(#SVGID_25_);}
	.st19{fill:url(#SVGID_26_);}
</style>
<g id="Layer_2_1_">
	<g id="Layer_1-2">
		<g>
			<defs>
				<polygon id="SVGID_1_" points="0,0 297.6,0 297.6,141 0,206.1 				"/>
			</defs>
			<clipPath id="SVGID_2_">
				<use xlink:href="#SVGID_1_"  style="overflow:visible;"/>
			</clipPath>
			<g class="st0">
				<polygon class="st1" points="107,47.2 0,47.2 0,29.5 111.7,29.4 				"/>
				<polygon class="st1" points="70.6,-15 32.7,118.5 49.5,118.5 87.4,-15 				"/>
				<polygon class="st1" points="93,79.8 0,79.8 0,62 97.2,62 				"/>
				<polygon class="st1" points="41.5,-15 3.6,118.5 20.4,118.5 58.3,-15 				"/>
				<path class="st2" d="M62.6,100.9l1.5-1.6c0.7,0.7,1.6,1.2,2.6,1.2c0.6,0,0.9-0.2,0.9-0.6s-0.2-0.5-1.4-1
					c-1.2-0.5-2.2-1.1-2.2-2.4c0-1.7,1.5-3,3.5-3c1.3,0,2.5,0.4,3.4,1.3l-1.4,1.7c-0.6-0.6-1.4-0.9-2.2-1c-0.6,0-0.9,0.3-0.9,0.6
					s0.3,0.5,1.4,1c1.1,0.5,2.2,1.1,2.2,2.4c0,1.8-1.5,3-3.5,3C65.1,102.6,63.6,102,62.6,100.9z"/>
				<path class="st2" d="M74.2,93.6h6.7l-0.5,2.1H76L75.6,97h4L79.1,99h-4l-0.4,1.4h4.4l-0.5,2.1H72L74.2,93.6z"/>
				<path class="st2" d="M83.7,93.6H86l1.1,3.4l2.8-3.4h2.6l-2.2,8.8H88l1.3-5l-3,3.5l0,0L85,97.4l-1.3,5h-2.3L83.7,93.6z"/>
				<path class="st2" d="M95.5,93.6h2.7c1-0.1,2.1,0.2,2.9,0.9c0.4,0.5,0.7,1.1,0.7,1.8c0,2.2-1.7,3.5-4.1,3.5h-1.4l-0.6,2.5h-2.3
					L95.5,93.6z M97.6,98c1.1,0,1.8-0.5,1.8-1.4c0-0.2-0.1-0.4-0.2-0.6c-0.3-0.3-0.6-0.4-1-0.3h-0.9L96.7,98L97.6,98z"/>
				<path class="st2" d="M105.1,93.6h3.2c1-0.1,2.1,0.2,2.9,0.9c0.4,0.5,0.7,1.1,0.6,1.8c0,1.5-1.1,2.8-2.5,3.1l1.3,3H108l-1.1-2.7
					h-1l-0.7,2.7h-2.3L105.1,93.6z M107.6,97.8c1,0,1.7-0.5,1.7-1.2c0-0.2-0.1-0.4-0.2-0.6c-0.3-0.2-0.6-0.3-1-0.3h-1.3l-0.6,2.1
					L107.6,97.8z"/>
				<path class="st2" d="M115.2,93.6h6.7l-0.5,2.1h-4.4l-0.3,1.3h4l-0.5,1.9h-4l-0.4,1.4h4.5l-0.5,2.1h-6.7L115.2,93.6z"/>
				<path class="st2" d="M59.7,113.8c0-0.8,0.1-1.5,0.3-2.3l1.9-7.2h3.8l-1.9,7.5c-0.1,0.4-0.2,0.9-0.2,1.3c-0.1,1.1,0.7,2,1.7,2.1
					c0.1,0,0.3,0,0.4,0c0.7,0,1.3-0.3,1.8-0.8c0.6-0.7,1-1.5,1.1-2.4l2-7.8h3.8l-2.1,8.5c-0.3,1.6-1.1,3-2.1,4.2
					c-1.4,1.3-3.2,2-5,1.8C61.7,118.8,59.7,116.9,59.7,113.8z"/>
				<path class="st2" d="M81.3,107.8h-4l0.9-3.5H90l-0.9,3.5h-4l-2.7,10.8h-3.8L81.3,107.8z"/>
				<path class="st2" d="M91.7,113.8c0-0.8,0.1-1.5,0.3-2.3l1.8-7.2h3.8l-1.9,7.5c-0.1,0.4-0.2,0.9-0.2,1.3c-0.1,1.1,0.7,2,1.7,2.1
					c0.1,0,0.3,0,0.4,0c0.7,0,1.3-0.3,1.8-0.8c0.6-0.7,1-1.5,1.1-2.4l2-7.8h3.8l-2.1,8.5c-0.3,1.6-1.1,3-2.1,4.2
					c-1.4,1.3-3.2,2-5,1.8C93.7,118.8,91.7,116.9,91.7,113.8z"/>
				<path class="st2" d="M111.1,104.3h5.1c2.3,0,3.7,0.5,4.7,1.5c0.7,0.8,1.1,1.8,1,2.9c0,2.4-1.3,4.2-4,5l2.1,4.8h-4.1l-1.8-4.3
					h-1.7l-1.1,4.3h-3.8L111.1,104.3z M115.3,111.1c1.7,0,2.8-0.8,2.8-2c0-0.4-0.1-0.7-0.4-1c-0.5-0.4-1.1-0.6-1.7-0.5h-2l-0.9,3.4
					H115.3z"/>
				<path class="st2" d="M125.2,112.4c0-4.6,3.6-8.4,8-8.4c3.8,0,6.4,2.8,6.4,6.4c0,4.6-3.6,8.4-8,8.4
					C127.8,118.8,125.2,116,125.2,112.4z M135.8,110.7c0.1-1.6-1-3-2.5-3.2c-0.1,0-0.3,0-0.4,0c-2.4,0-3.9,2.4-3.9,4.5
					c-0.1,1.6,1,3,2.5,3.2c0.1,0,0.3,0,0.4,0C134.3,115.2,135.8,112.8,135.8,110.7z"/>
				<polygon class="st2" points="107.5,47.3 111.7,29.5 74.8,29.5 57.9,29.5 52.9,47.3 52.9,47.3 48.7,62 48.7,62 43.7,79.8
					43.7,79.8 32.7,118.5 49.5,118.5 60.5,79.8 93,79.8 97.2,62 65.6,62 69.7,47.3 				"/>
			</g>
		</g>
		<path class="st3" d="M203.1,25.1H203h-0.1c-0.6,0.2-1.1,0.4-1.6,0.8c-2.9,1.4-6,2.1-9.1,2.1l0,0c-1,0-2-0.1-3-0.3
			c-6.5-1.8-6-2.7-8.2-3.6c-2.4-1-4.9-1.4-7.5-1.3l0,0c-3.1,0-6,1.3-8.3,3.5l-0.1,0.1l-7.4,15.4c-0.1,0.2,0,0.3,0.1,0.5
			c0.1,0.1,0.3,0.2,0.5,0.1c2.8-1.1,5.7-1.7,8.7-1.7c3.8,0,7.5,0.9,11,2.5c0.2,0.1,1.8,0.9,2.8,1.5h0.1h0.1h0.1
			c0.2,0.1,0.3,0.2,0.5,0.3l0,0l0,0l0,0c2.8,1.4,6.2,1.3,8.9-0.3c0,0,0,0,0.1,0c0.9-0.4,1.7-0.9,2.5-1.6c0.5-0.4,0.9-0.8,1.4-1.2
			c0.4-0.4,0.9-0.8,1.3-1.3c0.8-0.9,1.5-1.8,2.2-2.8c1.3-1.9,2.4-4,3.4-6.1c0.5-1.1,0.9-2.1,1.3-3.2c0.4-1,0.7-2.1,1-3.2
			c0-0.1,0-0.2,0-0.3C203.2,25.2,203.1,25.1,203.1,25.1z"/>
		<polygon class="st2" points="251.4,32.7 253.1,32.7 254.9,38.1 256.7,32.7 258.4,32.7 258.4,39.8 257.1,39.8 257.1,34.5
			255.4,39.8 254.4,39.8 252.7,34.5 252.7,39.8 251.4,39.8 		"/>
		<polygon class="st2" points="259.5,32.7 263.1,32.7 263.1,34 260.8,34 260.8,35.6 263,35.6 263,36.9 260.8,36.9 260.8,38.5
			263.1,38.5 263.1,39.8 259.5,39.8 		"/>
		<polygon class="st2" points="264.2,32.7 265.6,32.7 268.4,37.9 268.4,32.7 269.6,32.7 269.6,39.8 268.2,39.8 265.4,34.7
			265.4,39.8 264.2,39.8 		"/>
		<polygon class="st2" points="271.5,34 270.3,34 270.3,32.7 274,32.7 274,34 272.8,34 272.8,39.8 271.5,39.8 		"/>
		<path class="st2" d="M275.5,36.2c-0.1,1.3,0.8,2.4,2.1,2.5c1.2,0.1,2.3-0.9,2.4-2.2c0-0.1,0-0.2,0-0.3c0.1-1.3-0.8-2.4-2.1-2.5
			c-1.2-0.1-2.3,0.9-2.4,2.2C275.5,36,275.5,36.1,275.5,36.2 M281.2,36.2c0,2-1.5,3.7-3.4,3.7c-1.9,0-3.5-1.6-3.5-3.6
			c0-2,1.5-3.7,3.4-3.7c0,0,0,0,0,0C279.7,32.6,281.2,34.3,281.2,36.2C281.2,36.3,281.2,36.3,281.2,36.2"/>
		<g>
			<defs>
				<path id="SVGID_3_" d="M181.6,45L181.6,45L181.6,45L181.6,45 M173.4,23.3c-3,0-5.8,1.3-8,3.4L158,42.1c12.1-4.8,22.3,2,23.5,2.9
					c-7.3-5.5-1.1-20.6-1.1-20.6c-1.8-0.6-3.6-1-5.4-1.1H173.4z"/>
			</defs>
			<clipPath id="SVGID_4_">
				<use xlink:href="#SVGID_3_"  style="overflow:visible;"/>
			</clipPath>
			<g class="st4">

					<linearGradient id="SVGID_5_" gradientUnits="userSpaceOnUse" x1="-3289.647" y1="105.8982" x2="-3289.3787" y2="105.8982" gradientTransform="matrix(96.226 -43.4477 43.4477 96.226 312092.375 -153071.8594)">
					<stop  offset="0" style="stop-color:#73B562"/>
					<stop  offset="1" style="stop-color:#3D6C45"/>
				</linearGradient>
				<polygon class="st5" points="150.3,27 177.6,14 189.3,41.3 162,54.3 				"/>
			</g>
		</g>
		<g>
			<defs>
				<path id="SVGID_6_" d="M179.9,27.7c-0.2,0.5-0.3,1.1-0.4,1.6s-0.2,1.1-0.3,1.6c-0.4,2.2-0.6,4.3-0.4,6.5
					c0.1,1.1,0.3,2.1,0.6,3.2c0.3,1,0.8,2,1.5,2.8c0.7,0.8,1.6,1.4,2.5,1.8c0.5,0.2,1,0.3,1.5,0.4c0.5,0.1,1,0.1,1.6,0.1
					c1.1-0.1,2.2-0.3,3.2-0.8c1.1-0.5,2.1-1.1,3-1.8c0.5-0.4,0.9-0.8,1.4-1.2c0.4-0.4,0.8-0.8,1.2-1.3c0.8-0.9,1.5-1.8,2.2-2.8
					c1.3-1.9,2.4-3.9,3.3-6c0.5-1.1,0.9-2.1,1.3-3.2c0.4-1,0.7-2.1,1-3.2h-0.1c-1,2-2.1,3.9-3.2,5.8c-1.1,1.8-2.4,3.6-3.7,5.3
					c-0.7,0.8-1.4,1.6-2.1,2.3c-0.3,0.4-0.7,0.7-1.1,1.1c-0.4,0.3-0.8,0.6-1.1,0.9c-0.7,0.5-1.5,1-2.4,1.3c-0.8,0.3-1.6,0.5-2.4,0.5
					c-0.4,0-0.8,0-1.2-0.1c-0.4,0-0.7-0.1-1.1-0.3c-0.4-0.1-0.7-0.3-1-0.5l-0.4-0.2c-0.2-0.1-0.3-0.3-0.5-0.5
					c-0.5-0.6-0.9-1.2-1.2-2c-0.3-0.8-0.6-1.7-0.7-2.6c-0.3-1.9-0.4-3.9-0.3-5.9c0.1-2.1,0.3-4.2,0.6-6.3h-0.1
					C180.5,25.6,180.2,26.6,179.9,27.7"/>
			</defs>
			<clipPath id="SVGID_7_">
				<use xlink:href="#SVGID_6_"  style="overflow:visible;"/>
			</clipPath>
			<g class="st6">

					<linearGradient id="SVGID_8_" gradientUnits="userSpaceOnUse" x1="-3352.4512" y1="120.9201" x2="-3352.1785" y2="120.9201" gradientTransform="matrix(-63.9867 -48.2174 48.2174 -63.9867 -220146.6719 -153870.2031)">
					<stop  offset="0" style="stop-color:#1F1E22"/>
					<stop  offset="0.5" style="stop-color:#535658"/>
					<stop  offset="1" style="stop-color:#1F1E22"/>
				</linearGradient>
				<polygon class="st7" points="168.9,38 187.4,12.1 212.6,32.2 194.1,58.1 				"/>
			</g>
		</g>
		<g>
			<defs>
				<path id="SVGID_9_" d="M185,42c0,0,7.4,3.2,17-15.7v-0.4c-1.8,1-11.4,5.7-20.6-1.1C181.5,24.9,178.8,40.4,185,42"/>
			</defs>
			<clipPath id="SVGID_10_">
				<use xlink:href="#SVGID_9_"  style="overflow:visible;"/>
			</clipPath>
			<g class="st8">

					<linearGradient id="SVGID_11_" gradientUnits="userSpaceOnUse" x1="-3285.5703" y1="107.6661" x2="-3285.302" y2="107.6661" gradientTransform="matrix(83.2145 -37.4813 37.4813 83.2145 269556.7188 -132069.25)">
					<stop  offset="0" style="stop-color:#E7AA53"/>
					<stop  offset="1" style="stop-color:#EFE95B"/>
				</linearGradient>
				<polygon class="st9" points="171.3,28.6 197.8,16 208.9,42.1 182.4,54.6 				"/>
			</g>
		</g>
		<g>
			<defs>
				<path id="SVGID_12_" d="M186.5,30.7c-2.2,1-3.1,3.7-2.2,6c0.7,1.6,2.2,2.7,4,2.7l0,0c2.4,0,4.3-2,4.3-4.5s-1.9-4.6-4.3-4.6
					C187.7,30.3,187,30.4,186.5,30.7"/>
			</defs>
			<clipPath id="SVGID_13_">
				<use xlink:href="#SVGID_12_"  style="overflow:visible;"/>
			</clipPath>
			<g class="st10">

					<radialGradient id="SVGID_14_" cx="-3224.3208" cy="88.2156" r="0.26" gradientTransform="matrix(35.3961 0 0 37.3595 114302.6016 -3265.8318)" gradientUnits="userSpaceOnUse">
					<stop  offset="0" style="stop-color:#61A7DC"/>
					<stop  offset="1" style="stop-color:#364A95"/>
				</radialGradient>
				<rect x="183.8" y="30.3" class="st11" width="8.9" height="9.1"/>
			</g>
		</g>
		<path class="st3" d="M188.2,30.1c-1.9,0-3.5,1.2-4.2,3.1c-0.9,2.5,0.3,5.2,2.6,6.1c0.5,0.2,1.1,0.3,1.6,0.3c0.6,0,1.3-0.1,1.9-0.4
			c2.3-1.1,3.3-3.9,2.3-6.3C191.6,31.2,190,30.1,188.2,30.1 M188.2,30.5c2.3,0,4.1,1.9,4.1,4.3c0,1.7-0.9,3.2-2.4,3.9
			c-0.5,0.3-1.1,0.4-1.7,0.4c-2.3,0-4.1-1.9-4.1-4.3c0-1.7,0.9-3.2,2.4-3.9C187.1,30.6,187.6,30.5,188.2,30.5"/>
		<path class="st2" d="M223.9,46.7l0.7-3.3h-0.9l-0.7,3.3H223.9z M220.7,45.4l0.7-1.4l0,0l0.1,1.4H220.7z M220,46.7l0.3-0.6h1.3
			l0.1,0.6h1l-0.6-3.3h-1.1l-1.9,3.3H220z M215.8,46.7h0.7l0.5-2.5l0,0l0.6,2.5h1.2l0.7-3.3h-0.8l-0.5,2.4l0,0l-0.6-2.4h-1.2
			L215.8,46.7z M215.3,46.7l0.1-0.6H214l0.1-0.7h1.4l0.1-0.6h-1.4l0.1-0.7h1.5l0.1-0.6h-2.4l-0.7,3.3L215.3,46.7z M212.8,44.4
			c0.2-0.8-0.4-1.1-1-1.1c-0.7-0.1-1.3,0.3-1.5,1c-0.1,0.3,0,0.7,0.3,0.8c0.6,0.3,1.3,0.2,1.2,0.7c0,0.2-0.3,0.3-0.5,0.3
			s-0.5-0.2-0.4-0.5H210c-0.2,0.9,0.4,1.1,1.2,1.1c0.7,0.1,1.4-0.4,1.6-1.1c0.2-0.9-0.6-0.9-1.1-1.1c-0.2-0.1-0.5-0.1-0.4-0.4
			c0.1-0.2,0.2-0.3,0.4-0.3c0.1,0,0.2,0,0.3,0.1c0.1,0.1,0.1,0.2,0,0.3L212.8,44.4z"/>
		<path class="st2" d="M236,46.7l0.7-3.3h-0.9l-0.7,3.3H236z M235,44.3c0.2-0.8-0.4-1.1-1-1.1c-0.7-0.1-1.3,0.3-1.6,1
			c-0.1,0.3,0,0.7,0.3,0.8c0.6,0.3,1.3,0.2,1.2,0.7c0,0.2-0.3,0.3-0.5,0.3s-0.5-0.2-0.4-0.5h-0.9c-0.2,0.9,0.4,1.1,1.2,1.1
			c0.7,0.1,1.4-0.4,1.6-1.1c0.2-0.9-0.6-1-1.1-1.1c-0.2-0.1-0.5-0.1-0.4-0.4c0.1-0.2,0.2-0.3,0.4-0.3c0.1,0,0.2,0,0.3,0.1
			c0.1,0.1,0.1,0.2,0.1,0.3L235,44.3z M231.5,46.7l0.1-0.6h-1.5l0.2-0.7h1.4l0.1-0.6h-1.4l0.1-0.7h1.5l0.1-0.6h-2.4l-0.7,3.3H231.5z
			 M229,44.3c0.2-0.8-0.4-1.1-1-1.1c-0.7-0.1-1.3,0.3-1.6,1c-0.1,0.3,0,0.7,0.3,0.8c0.6,0.3,1.3,0.2,1.2,0.7c0,0.2-0.3,0.3-0.5,0.3
			c-0.2,0-0.5-0.2-0.4-0.5h-0.9c-0.2,0.9,0.4,1.1,1.2,1.1c0.7,0.1,1.4-0.4,1.6-1.1c0.2-0.9-0.6-1-1.1-1.1c-0.2-0.1-0.5-0.1-0.4-0.4
			c0.1-0.2,0.2-0.3,0.4-0.3c0.1,0,0.2,0,0.3,0.1c0,0.1,0,0.2,0,0.3L229,44.3z"/>
		<path class="st2" d="M203.1,25.1H203h-0.1c-0.6,0.2-1.1,0.4-1.6,0.8c-2.9,1.4-6,2.1-9.1,2.1l0,0c-1,0-2-0.1-3-0.3
			c-6.5-1.8-6-2.7-8.2-3.6c-2.4-1-4.9-1.4-7.5-1.3l0,0c-3.1,0-6,1.3-8.3,3.5l-0.1,0.1l-7.4,15.4c-0.1,0.2,0,0.3,0.1,0.5
			c0.1,0.1,0.3,0.2,0.5,0.1c2.8-1.1,5.7-1.7,8.7-1.7c3.8,0,7.5,0.9,11,2.5c0.2,0.1,1.8,0.9,2.8,1.5h0.1h0.1h0.1
			c0.2,0.1,0.3,0.2,0.5,0.3l0,0l0,0l0,0c2.8,1.4,6.2,1.3,8.9-0.3c0,0,0,0,0.1,0c0.9-0.4,1.7-0.9,2.5-1.6c0.5-0.4,0.9-0.8,1.4-1.2
			c0.4-0.4,0.9-0.8,1.3-1.3c0.8-0.9,1.5-1.8,2.2-2.8c1.3-1.9,2.4-4,3.4-6.1c0.5-1.1,0.9-2.1,1.3-3.2c0.4-1,0.7-2.1,1-3.2
			c0-0.1,0-0.2,0-0.3C203.2,25.2,203.1,25.1,203.1,25.1z"/>
		<path class="st2" d="M216,26.7c0-1.7-1.3-3-2.8-3c-1.6,0-2.9,1.3-2.9,3c0,1.7,1.3,3,2.8,3c0,0,0,0,0,0
			C214.7,29.7,216,28.4,216,26.7C216,26.7,216,26.7,216,26.7 M216.7,26.7c0.1,2-1.5,3.8-3.4,3.8c-1.9,0.1-3.6-1.6-3.6-3.6
			s1.5-3.8,3.4-3.8c0,0,0.1,0,0.1,0C215,23.1,216.6,24.7,216.7,26.7"/>
		<polygon class="st2" points="217.7,23.2 218.4,23.2 218.4,29.6 221.2,29.6 221.2,30.3 217.7,30.3 		"/>
		<rect x="221.9" y="23.2" class="st2" width="0.7" height="7"/>
		<polygon class="st2" points="223.9,23.2 225,23.2 227.4,29.2 229.8,23.2 230.8,23.2 230.8,30.3 230.2,30.3 230.2,24 227.7,30.3
			227.1,30.3 224.6,24 224.6,30.3 223.9,30.3 		"/>
		<path class="st2" d="M234,26.8c0.5,0,0.9-0.1,1.3-0.3c0.6-0.4,0.8-1.3,0.4-2c-0.1-0.2-0.4-0.4-0.6-0.5c-0.4-0.1-0.9-0.2-1.4-0.1
			h-0.9v2.9H234z M232.2,23.2h1.7c0.6-0.1,1.2,0.1,1.8,0.4c0.6,0.4,0.9,1,0.9,1.7c0,0.6-0.3,1.2-0.8,1.6c-0.5,0.4-1.1,0.5-1.7,0.5
			h-1.3v2.8h-0.7V23.2z"/>
		<path class="st2" d="M237.5,23.2h0.7v7h-0.7V23.2z M238.6,21l0.3,0.6l-1.7,1.1l-0.3-0.5L238.6,21z"/>
		<path class="st2" d="M243.5,27.3l-1.3-3.2l-1.3,3.2H243.5z M241.9,23.2h0.8l2.9,7h-0.7l-1-2.4h-3.1l-1,2.4h-0.7L241.9,23.2z"/>
		<path class="st2" d="M247.7,29.6c0.8,0.1,1.7-0.1,2.4-0.6c0.6-0.5,1-1.4,1-2.2c0-0.9-0.4-1.7-1-2.2c-0.7-0.5-1.6-0.7-2.4-0.6h-0.9
			v5.7L247.7,29.6z M246.2,23.3h1.8c0.9-0.1,1.9,0.2,2.6,0.8c0.8,0.7,1.2,1.6,1.2,2.7c0,1-0.4,1.9-1.1,2.6c-0.7,0.7-1.7,1-2.7,0.9
			h-1.8L246.2,23.3z"/>
		<path class="st2" d="M256.8,27.3l-1.3-3.2l-1.3,3.2H256.8z M255.2,23.2h0.7l2.9,7h-0.7l-1-2.4H254l-1,2.4h-0.7L255.2,23.2z"/>
		<path class="st2" d="M263.6,29.6c0.8,0.1,1.7-0.1,2.4-0.6c0.6-0.5,1-1.4,1-2.2c0-0.9-0.4-1.7-1-2.2c-0.7-0.5-1.6-0.7-2.4-0.6h-0.9
			v5.7L263.6,29.6z M262.1,23.3h1.8c0.9-0.1,1.9,0.2,2.6,0.8c1.4,1.2,1.6,3.4,0.5,4.9c-0.1,0.1-0.2,0.3-0.4,0.4
			c-0.7,0.7-1.7,1-2.7,0.9h-1.8L262.1,23.3z"/>
		<path class="st2" d="M274.8,26.7c0-1.7-1.3-3-2.8-3c-1.6,0-2.9,1.3-2.9,3c0,1.7,1.3,3,2.8,3c0,0,0,0,0,0
			C273.6,29.7,274.8,28.4,274.8,26.7C274.8,26.7,274.8,26.7,274.8,26.7 M275.5,26.7c0.1,2.1-1.5,3.8-3.4,3.8
			c-1.9,0.1-3.6-1.5-3.6-3.6c-0.1-2.1,1.5-3.8,3.4-3.8c0,0,0.1,0,0.1,0C273.9,23.1,275.5,24.7,275.5,26.7"/>
		<path class="st2" d="M216,37.8c-0.5,1.3-1.8,2.1-3.1,2.1c-1.9,0-3.5-1.6-3.5-3.7s1.6-3.7,3.5-3.7c1.4,0,2.6,0.8,3.2,2.1h-1.4
			c-0.4-0.5-1.1-0.9-1.7-0.9c-1.2,0-2.2,1.1-2.2,2.4c0,1.3,1,2.3,2.2,2.4c0.6,0,1.2-0.3,1.7-0.8L216,37.8z"/>
		<path class="st2" d="M217.8,36.2c-0.1,1.3,0.8,2.4,2.1,2.5c1.2,0.1,2.3-0.9,2.4-2.2c0-0.1,0-0.2,0-0.3c0.1-1.3-0.8-2.4-2.1-2.5
			c-1.2-0.1-2.3,0.9-2.4,2.2C217.8,36,217.8,36.1,217.8,36.2 M223.5,36.2c0,2-1.5,3.7-3.4,3.7c-1.9,0-3.5-1.6-3.5-3.6
			c0-2,1.5-3.7,3.4-3.7c0,0,0,0,0,0C221.9,32.6,223.5,34.2,223.5,36.2C223.5,36.3,223.5,36.3,223.5,36.2"/>
		<polygon class="st2" points="224.4,32.7 225.8,32.7 228.6,37.9 228.6,32.7 229.8,32.7 229.8,39.8 228.5,39.8 225.7,34.7
			225.7,39.8 224.4,39.8 		"/>
		<polygon class="st2" points="231.1,32.7 232.3,32.7 232.3,35.5 234.7,35.5 234.7,32.7 235.9,32.7 235.9,39.8 234.7,39.8
			234.7,36.8 232.3,36.8 232.3,39.8 231.1,39.8 		"/>
		<polygon class="st2" points="237.2,32.7 240.8,32.7 240.8,34 238.4,34 238.4,35.6 240.7,35.6 240.7,36.9 238.4,36.9 238.4,38.5
			240.8,38.5 240.8,39.8 237.2,39.8 		"/>
		<path class="st2" d="M248.1,37.8c-0.5,1.3-1.7,2.1-3.1,2.1c-1.9,0-3.5-1.6-3.5-3.7s1.6-3.7,3.5-3.7c1.4,0,2.6,0.8,3.2,2.1h-1.4
			c-0.4-0.5-1.1-0.9-1.7-0.9c-1.2,0-2.2,1.1-2.2,2.4c0,1.3,1,2.3,2.2,2.4c0.6,0,1.2-0.3,1.7-0.8L248.1,37.8z"/>
		<rect x="248.9" y="32.7" class="st2" width="1.2" height="7"/>
		<polygon class="st2" points="251.4,32.7 253.1,32.7 254.9,38.1 256.7,32.7 258.4,32.7 258.4,39.8 257.1,39.8 257.1,34.5
			255.4,39.8 254.4,39.8 252.7,34.5 252.7,39.8 251.4,39.8 		"/>
		<polygon class="st2" points="259.5,32.7 263.1,32.7 263.1,34 260.8,34 260.8,35.6 263,35.6 263,36.9 260.8,36.9 260.8,38.5
			263.1,38.5 263.1,39.8 259.5,39.8 		"/>
		<polygon class="st2" points="264.2,32.7 265.6,32.7 268.4,37.9 268.4,32.7 269.6,32.7 269.6,39.8 268.2,39.8 265.4,34.7
			265.4,39.8 264.2,39.8 		"/>
		<polygon class="st2" points="271.5,34 270.3,34 270.3,32.7 274,32.7 274,34 272.8,34 272.8,39.8 271.5,39.8 		"/>
		<path class="st2" d="M275.5,36.2c-0.1,1.3,0.8,2.4,2.1,2.5c1.2,0.1,2.3-0.9,2.4-2.2c0-0.1,0-0.2,0-0.3c0.1-1.3-0.8-2.4-2.1-2.5
			c-1.2-0.1-2.3,0.9-2.4,2.2C275.5,36,275.5,36.1,275.5,36.2 M281.2,36.2c0,2-1.5,3.7-3.4,3.7c-1.9,0-3.5-1.6-3.5-3.6
			c0-2,1.5-3.7,3.4-3.7c0,0,0,0,0,0C279.7,32.6,281.2,34.3,281.2,36.2C281.2,36.3,281.2,36.3,281.2,36.2"/>
		<g>
			<defs>
				<path id="SVGID_15_" d="M181.6,45L181.6,45L181.6,45L181.6,45 M173.4,23.3c-3,0-5.8,1.3-8,3.4L158,42.1
					c12.1-4.8,22.3,2,23.5,2.9c-7.3-5.5-1.1-20.6-1.1-20.6c-1.8-0.6-3.6-1-5.4-1.1H173.4z"/>
			</defs>
			<clipPath id="SVGID_16_">
				<use xlink:href="#SVGID_15_"  style="overflow:visible;"/>
			</clipPath>
			<g class="st12">

					<linearGradient id="SVGID_17_" gradientUnits="userSpaceOnUse" x1="-3289.647" y1="105.8982" x2="-3289.3787" y2="105.8982" gradientTransform="matrix(96.226 -43.4477 43.4477 96.226 312092.375 -153071.8594)">
					<stop  offset="0" style="stop-color:#73B562"/>
					<stop  offset="1" style="stop-color:#3D6C45"/>
				</linearGradient>
				<polygon class="st13" points="150.3,27 177.6,14 189.3,41.3 162,54.3 				"/>
			</g>
		</g>
		<g>
			<defs>
				<path id="SVGID_18_" d="M179.9,27.7c-0.2,0.5-0.3,1.1-0.4,1.6s-0.2,1.1-0.3,1.6c-0.4,2.2-0.6,4.3-0.4,6.5
					c0.1,1.1,0.3,2.1,0.6,3.2c0.3,1,0.8,2,1.5,2.8c0.7,0.8,1.6,1.4,2.5,1.8c0.5,0.2,1,0.3,1.5,0.4c0.5,0.1,1,0.1,1.6,0.1
					c1.1-0.1,2.2-0.3,3.2-0.8c1.1-0.5,2.1-1.1,3-1.8c0.5-0.4,0.9-0.8,1.4-1.2c0.4-0.4,0.8-0.8,1.2-1.3c0.8-0.9,1.5-1.8,2.2-2.8
					c1.3-1.9,2.4-3.9,3.3-6c0.5-1.1,0.9-2.1,1.3-3.2c0.4-1,0.7-2.1,1-3.2h-0.1c-1,2-2.1,3.9-3.2,5.8c-1.1,1.8-2.4,3.6-3.7,5.3
					c-0.7,0.8-1.4,1.6-2.1,2.3c-0.3,0.4-0.7,0.7-1.1,1.1c-0.4,0.3-0.8,0.6-1.1,0.9c-0.7,0.5-1.5,1-2.4,1.3c-0.8,0.3-1.6,0.5-2.4,0.5
					c-0.4,0-0.8,0-1.2-0.1c-0.4,0-0.7-0.1-1.1-0.3c-0.4-0.1-0.7-0.3-1-0.5l-0.4-0.2c-0.2-0.1-0.3-0.3-0.5-0.5
					c-0.5-0.6-0.9-1.2-1.2-2c-0.3-0.8-0.6-1.7-0.7-2.6c-0.3-1.9-0.4-3.9-0.3-5.9c0.1-2.1,0.3-4.2,0.6-6.3h-0.1
					C180.5,25.6,180.2,26.6,179.9,27.7"/>
			</defs>
			<clipPath id="SVGID_19_">
				<use xlink:href="#SVGID_18_"  style="overflow:visible;"/>
			</clipPath>
			<g class="st14">

					<linearGradient id="SVGID_20_" gradientUnits="userSpaceOnUse" x1="-3352.4512" y1="120.9201" x2="-3352.1785" y2="120.9201" gradientTransform="matrix(-63.9867 -48.2174 48.2174 -63.9867 -220146.6719 -153870.2031)">
					<stop  offset="0" style="stop-color:#1F1E22"/>
					<stop  offset="0.5" style="stop-color:#535658"/>
					<stop  offset="1" style="stop-color:#1F1E22"/>
				</linearGradient>
				<polygon class="st15" points="168.9,38 187.4,12.1 212.6,32.2 194.1,58.1 				"/>
			</g>
		</g>
		<g>
			<defs>
				<path id="SVGID_21_" d="M185,42c0,0,7.4,3.2,17-15.7v-0.4c-1.8,1-11.4,5.7-20.6-1.1C181.5,24.9,178.8,40.4,185,42"/>
			</defs>
			<clipPath id="SVGID_22_">
				<use xlink:href="#SVGID_21_"  style="overflow:visible;"/>
			</clipPath>
			<g class="st16">

					<linearGradient id="SVGID_23_" gradientUnits="userSpaceOnUse" x1="-3285.5703" y1="107.6661" x2="-3285.302" y2="107.6661" gradientTransform="matrix(83.2145 -37.4813 37.4813 83.2145 269556.7188 -132069.25)">
					<stop  offset="0" style="stop-color:#E7AA53"/>
					<stop  offset="1" style="stop-color:#EFE95B"/>
				</linearGradient>
				<polygon class="st17" points="171.3,28.6 197.8,16 208.9,42.1 182.4,54.6 				"/>
			</g>
		</g>
		<g>
			<defs>
				<path id="SVGID_24_" d="M186.5,30.7c-2.2,1-3.1,3.7-2.2,6c0.7,1.6,2.2,2.7,4,2.7l0,0c2.4,0,4.3-2,4.3-4.5s-1.9-4.6-4.3-4.6
					C187.7,30.3,187,30.4,186.5,30.7"/>
			</defs>
			<clipPath id="SVGID_25_">
				<use xlink:href="#SVGID_24_"  style="overflow:visible;"/>
			</clipPath>
			<g class="st18">

					<radialGradient id="SVGID_26_" cx="-3224.3208" cy="88.2156" r="0.26" gradientTransform="matrix(35.3961 0 0 37.3595 114302.6016 -3265.8318)" gradientUnits="userSpaceOnUse">
					<stop  offset="0" style="stop-color:#61A7DC"/>
					<stop  offset="1" style="stop-color:#364A95"/>
				</radialGradient>
				<rect x="183.8" y="30.3" class="st19" width="8.9" height="9.1"/>
			</g>
		</g>
		<path class="st2" d="M188.2,30.1c-1.9,0-3.5,1.2-4.2,3.1c-0.9,2.5,0.3,5.2,2.6,6.1c0.5,0.2,1.1,0.3,1.6,0.3c0.6,0,1.3-0.1,1.9-0.4
			c2.3-1.1,3.3-3.9,2.3-6.3C191.6,31.2,190,30.1,188.2,30.1 M188.2,30.5c2.3,0,4.1,1.9,4.1,4.3c0,1.7-0.9,3.2-2.4,3.9
			c-0.5,0.3-1.1,0.4-1.7,0.4c-2.3,0-4.1-1.9-4.1-4.3c0-1.7,0.9-3.2,2.4-3.9C187.1,30.6,187.6,30.5,188.2,30.5"/>
		<path class="st2" d="M223.9,46.7l0.7-3.3h-0.9l-0.7,3.3H223.9z M220.7,45.4l0.7-1.4l0,0l0.1,1.4H220.7z M220,46.7l0.3-0.6h1.3
			l0.1,0.6h1l-0.6-3.3h-1.1l-1.9,3.3H220z M215.8,46.7h0.7l0.5-2.5l0,0l0.6,2.5h1.2l0.7-3.3h-0.8l-0.5,2.4l0,0l-0.6-2.4h-1.2
			L215.8,46.7z M215.3,46.7l0.1-0.6H214l0.1-0.7h1.4l0.1-0.6h-1.4l0.1-0.7h1.5l0.1-0.6h-2.4l-0.7,3.3L215.3,46.7z M212.8,44.4
			c0.2-0.8-0.4-1.1-1-1.1c-0.7-0.1-1.3,0.3-1.5,1c-0.1,0.3,0,0.7,0.3,0.8c0.6,0.3,1.3,0.2,1.2,0.7c0,0.2-0.3,0.3-0.5,0.3
			s-0.5-0.2-0.4-0.5H210c-0.2,0.9,0.4,1.1,1.2,1.1c0.7,0.1,1.4-0.4,1.6-1.1c0.2-0.9-0.6-0.9-1.1-1.1c-0.2-0.1-0.5-0.1-0.4-0.4
			c0.1-0.2,0.2-0.3,0.4-0.3c0.1,0,0.2,0,0.3,0.1c0.1,0.1,0.1,0.2,0,0.3L212.8,44.4z"/>
		<path class="st2" d="M236,46.7l0.7-3.3h-0.9l-0.7,3.3H236z M235,44.3c0.2-0.8-0.4-1.1-1-1.1c-0.7-0.1-1.3,0.3-1.6,1
			c-0.1,0.3,0,0.7,0.3,0.8c0.6,0.3,1.3,0.2,1.2,0.7c0,0.2-0.3,0.3-0.5,0.3s-0.5-0.2-0.4-0.5h-0.9c-0.2,0.9,0.4,1.1,1.2,1.1
			c0.7,0.1,1.4-0.4,1.6-1.1c0.2-0.9-0.6-1-1.1-1.1c-0.2-0.1-0.5-0.1-0.4-0.4c0.1-0.2,0.2-0.3,0.4-0.3c0.1,0,0.2,0,0.3,0.1
			c0.1,0.1,0.1,0.2,0.1,0.3L235,44.3z M231.5,46.7l0.1-0.6h-1.5l0.2-0.7h1.4l0.1-0.6h-1.4l0.1-0.7h1.5l0.1-0.6h-2.4l-0.7,3.3H231.5z
			 M229,44.3c0.2-0.8-0.4-1.1-1-1.1c-0.7-0.1-1.3,0.3-1.6,1c-0.1,0.3,0,0.7,0.3,0.8c0.6,0.3,1.3,0.2,1.2,0.7c0,0.2-0.3,0.3-0.5,0.3
			c-0.2,0-0.5-0.2-0.4-0.5h-0.9c-0.2,0.9,0.4,1.1,1.2,1.1c0.7,0.1,1.4-0.4,1.6-1.1c0.2-0.9-0.6-1-1.1-1.1c-0.2-0.1-0.5-0.1-0.4-0.4
			c0.1-0.2,0.2-0.3,0.4-0.3c0.1,0,0.2,0,0.3,0.1c0,0.1,0,0.2,0,0.3L229,44.3z"/>
	</g>
</g>
</svg>
